<svg version="1.1" class="svg-ico" xmlns="http://www.w3.org/2000/svg" xmlns:xlink="http://www.w3.org/1999/xlink" x="0px" y="0px"
	 width="16px" height="16px" viewBox="0 0 16 16" enable-background="new 0 0 16 16" xml:space="preserve">
<g>
	<g>
		<path d="M5.228,13.359c-0.709,0-1.244,0.535-1.244,1.244s0.535,1.283,1.244,1.283s1.283-0.574,1.283-1.283
			S5.937,13.359,5.228,13.359z M12.217,13.359c-0.708,0-1.283,0.557-1.283,1.264c0,0.711,0.575,1.285,1.283,1.285
			s1.282-0.574,1.282-1.285C13.5,13.914,12.926,13.359,12.217,13.359z M14.791,2.649L3.298,2.666L3.03,1.386
			c0,0,0.025-1.254-1.278-1.254c0,0-1.752-0.473-1.752,1.857l1.044-0.002c0,0,1.616,9.832,1.616,10.109
			c0,0.35,0.283,0.633,0.632,0.633h10.701c0.35,0,0.75,0.072,0.75-0.908c0-1.139-0.4-0.947-0.75-0.947H4.319l-0.254-1.26
			l10.713-0.012c0,0,1.217-0.025,1.217-1.249L16,3.87C16,3.87,15.937,2.649,14.791,2.649z M14.111,7.082
			c0,0.349-0.282,0.632-0.632,0.632H4.576c-0.35,0-0.632-0.283-0.632-0.632L3.707,5.186c0-0.349,0.283-0.632,0.632-0.632h9.141
			c0.35,0,0.633,0.283,0.633,0.632L14.111,7.082L14.111,7.082z"/>
	</g>
</g>
</svg>
