<svg version="1.1" class="svg-ico" xmlns="http://www.w3.org/2000/svg" xmlns:xlink="http://www.w3.org/1999/xlink" x="0px" y="0px"
	 width="16px" height="16px" viewBox="0 0 16 16" enable-background="new 0 0 16 16" xml:space="preserve">
<g>
	<path d="M6.552,12.098l6.598-3.809C13.253,8.23,13.316,8.119,13.316,8c0-0.12-0.063-0.23-0.167-0.29L6.552,3.901
		c-0.104-0.06-0.231-0.06-0.335,0C6.114,3.96,6.05,4.07,6.05,4.189v1.774H0.355c-0.185,0-0.335,0.15-0.335,0.335v3.403
		c0,0.186,0.15,0.334,0.335,0.334H6.05v1.773c0,0.119,0.063,0.23,0.167,0.289c0.052,0.031,0.11,0.045,0.167,0.045
		C6.442,12.145,6.5,12.129,6.552,12.098L6.552,12.098z"/>
	<path d="M13.509,0H6.695C6.51,0,6.36,0.15,6.36,0.334v1.002c0,0.185,0.15,0.335,0.335,0.335h6.815
		c0.439,0,0.798,0.358,0.798,0.798v11.06c0,0.439-0.358,0.799-0.798,0.799H6.695c-0.185,0-0.335,0.148-0.335,0.334v1.002
		C6.36,15.85,6.51,16,6.695,16h6.815c1.361,0,2.47-1.109,2.47-2.471V2.47C15.979,1.107,14.871,0,13.509,0L13.509,0z"/>
</g>
</svg>
