<svg version="1.1" class="svg-ico" xmlns="http://www.w3.org/2000/svg" xmlns:xlink="http://www.w3.org/1999/xlink" x="0px" y="0px"
	 width="16px" height="16px" viewBox="0 0 16 16" enable-background="new 0 0 16 16" xml:space="preserve">
<g>
	<path d="M15.484,0.301H0.517C0.233,0.301,0,0.534,0,0.818v2.298c0,0.286,0.232,0.518,0.517,0.518h14.967
		C15.77,3.634,16,3.401,16,3.116V0.818C16,0.534,15.77,0.301,15.484,0.301L15.484,0.301z"/>
	<path d="M15.484,6.334H0.517C0.233,6.334,0,6.566,0,6.851v2.298c0,0.285,0.232,0.518,0.517,0.518h14.967
		C15.77,9.666,16,9.434,16,9.148V6.851C16,6.566,15.77,6.334,15.484,6.334L15.484,6.334z"/>
	<path d="M15.484,12.367H0.517C0.233,12.367,0,12.6,0,12.883v2.299c0,0.285,0.232,0.518,0.517,0.518h14.967
		c0.285,0,0.516-0.232,0.516-0.518v-2.299C16,12.6,15.77,12.367,15.484,12.367L15.484,12.367z"/>
</g>
</svg>
