<svg width="26" height="27" viewBox="0 0 26 27" fill="none" xmlns="http://www.w3.org/2000/svg">
<mask id="path-1-outside-1" maskUnits="userSpaceOnUse" x="0.181824" y="1.62781" width="24" height="25" fill="black">
<rect fill="white" x="0.181824" y="1.62781" width="24" height="25"/>
<path d="M19.8275 16.4003C19.344 15.8775 18.7609 15.598 18.1429 15.598C17.5299 15.598 16.9418 15.8724 16.4384 16.3951L14.8634 18.0254C14.7338 17.953 14.6043 17.8857 14.4797 17.8184C14.3002 17.7252 14.1308 17.6373 13.9862 17.5441C12.511 16.5711 11.1703 15.303 9.88443 13.6623C9.26143 12.8446 8.84278 12.1562 8.53875 11.4575C8.94744 11.0693 9.32623 10.6656 9.69504 10.2775C9.83459 10.1325 9.97414 9.98244 10.1137 9.83752C11.1603 8.75063 11.1603 7.34285 10.1137 6.25595L8.75307 4.843C8.59856 4.68255 8.43908 4.51693 8.28956 4.35131C7.99052 4.03042 7.67653 3.69917 7.35257 3.38863C6.86912 2.89177 6.29098 2.62781 5.68293 2.62781C5.07489 2.62781 4.48678 2.89177 3.98838 3.38863C3.98339 3.39381 3.98339 3.39381 3.97841 3.39898L2.28386 5.17424C1.64591 5.83673 1.28208 6.64413 1.20233 7.58093C1.08272 9.09222 1.51134 10.5 1.84028 11.4213C2.64769 13.683 3.85381 15.7792 5.65303 18.0254C7.83601 20.7323 10.4626 22.8699 13.4629 24.376C14.6092 24.9401 16.1393 25.6078 17.8488 25.7217C17.9535 25.7268 18.0631 25.732 18.1628 25.732C19.3141 25.732 20.281 25.3024 21.0386 24.4484C21.0436 24.4381 21.0535 24.4329 21.0585 24.4226C21.3177 24.0965 21.6167 23.8015 21.9307 23.4858C22.145 23.2736 22.3643 23.051 22.5786 22.8181C23.0721 22.285 23.3312 21.6639 23.3312 21.0273C23.3312 20.3855 23.0671 19.7696 22.5637 19.2521L19.8275 16.4003ZM21.6117 21.8503C21.6068 21.8503 21.6068 21.8554 21.6117 21.8503C21.4174 22.0676 21.218 22.2643 21.0037 22.4817C20.6797 22.8026 20.3508 23.139 20.0418 23.5168C19.5384 24.0758 18.9453 24.3398 18.1678 24.3398C18.0931 24.3398 18.0133 24.3398 17.9385 24.3346C16.4583 24.2362 15.0827 23.6359 14.051 23.1235C11.2301 21.7053 8.75307 19.692 6.69468 17.1404C4.99514 15.0132 3.8588 13.0464 3.10621 10.9348C2.6427 9.64602 2.47325 8.64194 2.54801 7.69479C2.59785 7.08924 2.82213 6.5872 3.2358 6.15762L4.93534 4.39271C5.17955 4.15463 5.43872 4.02524 5.6929 4.02524C6.00689 4.02524 6.26108 4.22192 6.42056 4.38754C6.42555 4.39271 6.43053 4.39789 6.43551 4.40306C6.73954 4.69808 7.02861 5.00344 7.33263 5.32951C7.48713 5.49513 7.64662 5.66075 7.80611 5.83155L9.16674 7.24451C9.69504 7.79313 9.69504 8.30035 9.16674 8.84897C9.0222 8.99906 8.88265 9.14916 8.73811 9.29407C8.31946 9.73918 7.92074 10.1532 7.48713 10.5569C7.47717 10.5673 7.4672 10.5725 7.46222 10.5828C7.03359 11.0279 7.11334 11.4627 7.20305 11.7577C7.20803 11.7732 7.21302 11.7887 7.218 11.8043C7.57186 12.6945 8.07026 13.533 8.82783 14.5319L8.83281 14.537C10.2084 16.2968 11.6587 17.6683 13.2586 18.719C13.4629 18.8535 13.6723 18.9622 13.8716 19.0657C14.051 19.1589 14.2205 19.2469 14.365 19.3401C14.385 19.3504 14.4049 19.3659 14.4248 19.3763C14.5943 19.4643 14.7538 19.5057 14.9183 19.5057C15.3319 19.5057 15.5911 19.2365 15.6758 19.1486L17.3803 17.3785C17.5498 17.2025 17.8189 16.9903 18.1329 16.9903C18.4419 16.9903 18.6961 17.1922 18.8506 17.3681C18.8556 17.3733 18.8556 17.3733 18.8606 17.3785L21.6068 20.2303C22.1201 20.7582 22.1201 21.3016 21.6117 21.8503Z"/>
</mask>
<path d="M19.8275 16.4003C19.344 15.8775 18.7609 15.598 18.1429 15.598C17.5299 15.598 16.9418 15.8724 16.4384 16.3951L14.8634 18.0254C14.7338 17.953 14.6043 17.8857 14.4797 17.8184C14.3002 17.7252 14.1308 17.6373 13.9862 17.5441C12.511 16.5711 11.1703 15.303 9.88443 13.6623C9.26143 12.8446 8.84278 12.1562 8.53875 11.4575C8.94744 11.0693 9.32623 10.6656 9.69504 10.2775C9.83459 10.1325 9.97414 9.98244 10.1137 9.83752C11.1603 8.75063 11.1603 7.34285 10.1137 6.25595L8.75307 4.843C8.59856 4.68255 8.43908 4.51693 8.28956 4.35131C7.99052 4.03042 7.67653 3.69917 7.35257 3.38863C6.86912 2.89177 6.29098 2.62781 5.68293 2.62781C5.07489 2.62781 4.48678 2.89177 3.98838 3.38863C3.98339 3.39381 3.98339 3.39381 3.97841 3.39898L2.28386 5.17424C1.64591 5.83673 1.28208 6.64413 1.20233 7.58093C1.08272 9.09222 1.51134 10.5 1.84028 11.4213C2.64769 13.683 3.85381 15.7792 5.65303 18.0254C7.83601 20.7323 10.4626 22.8699 13.4629 24.376C14.6092 24.9401 16.1393 25.6078 17.8488 25.7217C17.9535 25.7268 18.0631 25.732 18.1628 25.732C19.3141 25.732 20.281 25.3024 21.0386 24.4484C21.0436 24.4381 21.0535 24.4329 21.0585 24.4226C21.3177 24.0965 21.6167 23.8015 21.9307 23.4858C22.145 23.2736 22.3643 23.051 22.5786 22.8181C23.0721 22.285 23.3312 21.6639 23.3312 21.0273C23.3312 20.3855 23.0671 19.7696 22.5637 19.2521L19.8275 16.4003ZM21.6117 21.8503C21.6068 21.8503 21.6068 21.8554 21.6117 21.8503C21.4174 22.0676 21.218 22.2643 21.0037 22.4817C20.6797 22.8026 20.3508 23.139 20.0418 23.5168C19.5384 24.0758 18.9453 24.3398 18.1678 24.3398C18.0931 24.3398 18.0133 24.3398 17.9385 24.3346C16.4583 24.2362 15.0827 23.6359 14.051 23.1235C11.2301 21.7053 8.75307 19.692 6.69468 17.1404C4.99514 15.0132 3.8588 13.0464 3.10621 10.9348C2.6427 9.64602 2.47325 8.64194 2.54801 7.69479C2.59785 7.08924 2.82213 6.5872 3.2358 6.15762L4.93534 4.39271C5.17955 4.15463 5.43872 4.02524 5.6929 4.02524C6.00689 4.02524 6.26108 4.22192 6.42056 4.38754C6.42555 4.39271 6.43053 4.39789 6.43551 4.40306C6.73954 4.69808 7.02861 5.00344 7.33263 5.32951C7.48713 5.49513 7.64662 5.66075 7.80611 5.83155L9.16674 7.24451C9.69504 7.79313 9.69504 8.30035 9.16674 8.84897C9.0222 8.99906 8.88265 9.14916 8.73811 9.29407C8.31946 9.73918 7.92074 10.1532 7.48713 10.5569C7.47717 10.5673 7.4672 10.5725 7.46222 10.5828C7.03359 11.0279 7.11334 11.4627 7.20305 11.7577C7.20803 11.7732 7.21302 11.7887 7.218 11.8043C7.57186 12.6945 8.07026 13.533 8.82783 14.5319L8.83281 14.537C10.2084 16.2968 11.6587 17.6683 13.2586 18.719C13.4629 18.8535 13.6723 18.9622 13.8716 19.0657C14.051 19.1589 14.2205 19.2469 14.365 19.3401C14.385 19.3504 14.4049 19.3659 14.4248 19.3763C14.5943 19.4643 14.7538 19.5057 14.9183 19.5057C15.3319 19.5057 15.5911 19.2365 15.6758 19.1486L17.3803 17.3785C17.5498 17.2025 17.8189 16.9903 18.1329 16.9903C18.4419 16.9903 18.6961 17.1922 18.8506 17.3681C18.8556 17.3733 18.8556 17.3733 18.8606 17.3785L21.6068 20.2303C22.1201 20.7582 22.1201 21.3016 21.6117 21.8503Z" fill="black"/>
<path d="M19.8275 16.4003C19.344 15.8775 18.7609 15.598 18.1429 15.598C17.5299 15.598 16.9418 15.8724 16.4384 16.3951L14.8634 18.0254C14.7338 17.953 14.6043 17.8857 14.4797 17.8184C14.3002 17.7252 14.1308 17.6373 13.9862 17.5441C12.511 16.5711 11.1703 15.303 9.88443 13.6623C9.26143 12.8446 8.84278 12.1562 8.53875 11.4575C8.94744 11.0693 9.32623 10.6656 9.69504 10.2775C9.83459 10.1325 9.97414 9.98244 10.1137 9.83752C11.1603 8.75063 11.1603 7.34285 10.1137 6.25595L8.75307 4.843C8.59856 4.68255 8.43908 4.51693 8.28956 4.35131C7.99052 4.03042 7.67653 3.69917 7.35257 3.38863C6.86912 2.89177 6.29098 2.62781 5.68293 2.62781C5.07489 2.62781 4.48678 2.89177 3.98838 3.38863C3.98339 3.39381 3.98339 3.39381 3.97841 3.39898L2.28386 5.17424C1.64591 5.83673 1.28208 6.64413 1.20233 7.58093C1.08272 9.09222 1.51134 10.5 1.84028 11.4213C2.64769 13.683 3.85381 15.7792 5.65303 18.0254C7.83601 20.7323 10.4626 22.8699 13.4629 24.376C14.6092 24.9401 16.1393 25.6078 17.8488 25.7217C17.9535 25.7268 18.0631 25.732 18.1628 25.732C19.3141 25.732 20.281 25.3024 21.0386 24.4484C21.0436 24.4381 21.0535 24.4329 21.0585 24.4226C21.3177 24.0965 21.6167 23.8015 21.9307 23.4858C22.145 23.2736 22.3643 23.051 22.5786 22.8181C23.0721 22.285 23.3312 21.6639 23.3312 21.0273C23.3312 20.3855 23.0671 19.7696 22.5637 19.2521L19.8275 16.4003ZM21.6117 21.8503C21.6068 21.8503 21.6068 21.8554 21.6117 21.8503C21.4174 22.0676 21.218 22.2643 21.0037 22.4817C20.6797 22.8026 20.3508 23.139 20.0418 23.5168C19.5384 24.0758 18.9453 24.3398 18.1678 24.3398C18.0931 24.3398 18.0133 24.3398 17.9385 24.3346C16.4583 24.2362 15.0827 23.6359 14.051 23.1235C11.2301 21.7053 8.75307 19.692 6.69468 17.1404C4.99514 15.0132 3.8588 13.0464 3.10621 10.9348C2.6427 9.64602 2.47325 8.64194 2.54801 7.69479C2.59785 7.08924 2.82213 6.5872 3.2358 6.15762L4.93534 4.39271C5.17955 4.15463 5.43872 4.02524 5.6929 4.02524C6.00689 4.02524 6.26108 4.22192 6.42056 4.38754C6.42555 4.39271 6.43053 4.39789 6.43551 4.40306C6.73954 4.69808 7.02861 5.00344 7.33263 5.32951C7.48713 5.49513 7.64662 5.66075 7.80611 5.83155L9.16674 7.24451C9.69504 7.79313 9.69504 8.30035 9.16674 8.84897C9.0222 8.99906 8.88265 9.14916 8.73811 9.29407C8.31946 9.73918 7.92074 10.1532 7.48713 10.5569C7.47717 10.5673 7.4672 10.5725 7.46222 10.5828C7.03359 11.0279 7.11334 11.4627 7.20305 11.7577C7.20803 11.7732 7.21302 11.7887 7.218 11.8043C7.57186 12.6945 8.07026 13.533 8.82783 14.5319L8.83281 14.537C10.2084 16.2968 11.6587 17.6683 13.2586 18.719C13.4629 18.8535 13.6723 18.9622 13.8716 19.0657C14.051 19.1589 14.2205 19.2469 14.365 19.3401C14.385 19.3504 14.4049 19.3659 14.4248 19.3763C14.5943 19.4643 14.7538 19.5057 14.9183 19.5057C15.3319 19.5057 15.5911 19.2365 15.6758 19.1486L17.3803 17.3785C17.5498 17.2025 17.8189 16.9903 18.1329 16.9903C18.4419 16.9903 18.6961 17.1922 18.8506 17.3681C18.8556 17.3733 18.8556 17.3733 18.8606 17.3785L21.6068 20.2303C22.1201 20.7582 22.1201 21.3016 21.6117 21.8503Z" stroke="black" stroke-width="0.6" mask="url(#path-1-outside-1)"/>
<mask id="path-2-outside-2" maskUnits="userSpaceOnUse" x="12.3726" y="4.65659" width="9" height="9" fill="black">
<rect fill="white" x="12.3726" y="4.65659" width="9" height="9"/>
<path d="M13.9265 7.04267C15.2323 7.2704 16.4184 7.91218 17.3654 8.89556C18.3124 9.87894 18.9254 11.1108 19.1497 12.4668C19.2045 12.8084 19.4886 13.0465 19.8125 13.0465C19.8524 13.0465 19.8873 13.0413 19.9272 13.0361C20.296 12.974 20.5402 12.6117 20.4804 12.2287C20.2113 10.588 19.4637 9.09224 18.3223 7.90701C17.181 6.72178 15.7406 5.94543 14.1607 5.66594C13.7919 5.60383 13.448 5.85744 13.3832 6.23526C13.3184 6.61309 13.5576 6.98056 13.9265 7.04267Z"/>
</mask>
<path d="M13.9265 7.04267C15.2323 7.2704 16.4184 7.91218 17.3654 8.89556C18.3124 9.87894 18.9254 11.1108 19.1497 12.4668C19.2045 12.8084 19.4886 13.0465 19.8125 13.0465C19.8524 13.0465 19.8873 13.0413 19.9272 13.0361C20.296 12.974 20.5402 12.6117 20.4804 12.2287C20.2113 10.588 19.4637 9.09224 18.3223 7.90701C17.181 6.72178 15.7406 5.94543 14.1607 5.66594C13.7919 5.60383 13.448 5.85744 13.3832 6.23526C13.3184 6.61309 13.5576 6.98056 13.9265 7.04267Z" fill="black"/>
<path d="M13.9265 7.04267C15.2323 7.2704 16.4184 7.91218 17.3654 8.89556C18.3124 9.87894 18.9254 11.1108 19.1497 12.4668C19.2045 12.8084 19.4886 13.0465 19.8125 13.0465C19.8524 13.0465 19.8873 13.0413 19.9272 13.0361C20.296 12.974 20.5402 12.6117 20.4804 12.2287C20.2113 10.588 19.4637 9.09224 18.3223 7.90701C17.181 6.72178 15.7406 5.94543 14.1607 5.66594C13.7919 5.60383 13.448 5.85744 13.3832 6.23526C13.3184 6.61309 13.5576 6.98056 13.9265 7.04267Z" stroke="black" stroke-width="0.6" mask="url(#path-2-outside-2)"/>
<mask id="path-3-outside-3" maskUnits="userSpaceOnUse" x="12.5635" y="0.209381" width="13" height="13" fill="black">
<rect fill="white" x="12.5635" y="0.209381" width="13" height="13"/>
<path d="M24.7516 12.0268C24.308 9.32514 23.082 6.86669 21.198 4.91029C19.3141 2.95388 16.9467 1.68067 14.3451 1.22003C13.9812 1.15275 13.6373 1.41153 13.5725 1.78936C13.5127 2.17236 13.7569 2.52948 14.1258 2.59676C16.4483 3.00564 18.5665 4.14947 20.2511 5.89367C21.9357 7.64305 23.0321 9.84271 23.4259 12.2546C23.4807 12.5962 23.7648 12.8342 24.0887 12.8342C24.1286 12.8342 24.1635 12.8291 24.2034 12.8239C24.5672 12.767 24.8164 12.4047 24.7516 12.0268Z"/>
</mask>
<path d="M24.7516 12.0268C24.308 9.32514 23.082 6.86669 21.198 4.91029C19.3141 2.95388 16.9467 1.68067 14.3451 1.22003C13.9812 1.15275 13.6373 1.41153 13.5725 1.78936C13.5127 2.17236 13.7569 2.52948 14.1258 2.59676C16.4483 3.00564 18.5665 4.14947 20.2511 5.89367C21.9357 7.64305 23.0321 9.84271 23.4259 12.2546C23.4807 12.5962 23.7648 12.8342 24.0887 12.8342C24.1286 12.8342 24.1635 12.8291 24.2034 12.8239C24.5672 12.767 24.8164 12.4047 24.7516 12.0268Z" fill="black"/>
<path d="M24.7516 12.0268C24.308 9.32514 23.082 6.86669 21.198 4.91029C19.3141 2.95388 16.9467 1.68067 14.3451 1.22003C13.9812 1.15275 13.6373 1.41153 13.5725 1.78936C13.5127 2.17236 13.7569 2.52948 14.1258 2.59676C16.4483 3.00564 18.5665 4.14947 20.2511 5.89367C21.9357 7.64305 23.0321 9.84271 23.4259 12.2546C23.4807 12.5962 23.7648 12.8342 24.0887 12.8342C24.1286 12.8342 24.1635 12.8291 24.2034 12.8239C24.5672 12.767 24.8164 12.4047 24.7516 12.0268Z" stroke="black" stroke-width="0.6" mask="url(#path-3-outside-3)"/>
</svg>
