<svg version="1.1" class="svg-ico" xmlns="http://www.w3.org/2000/svg" xmlns:xlink="http://www.w3.org/1999/xlink" x="0px" y="0px"
	 width="16px" height="16px" viewBox="0 0 16 16" enable-background="new 0 0 16 16" xml:space="preserve">
<g>
	<g>
		<defs>
			<rect id="SVGID_1_" x="0.02" y="0" width="15.96" height="16"/>
		</defs>
		<clipPath id="SVGID_2_">
			<use xlink:href="#SVGID_1_"  overflow="visible"/>
		</clipPath>
		<path clip-path="url(#SVGID_2_)" d="M12.137,10.564c-0.52-0.514-1.17-0.514-1.688,0c-0.395,0.393-0.789,0.783-1.178,1.182
			c-0.105,0.109-0.195,0.133-0.325,0.059c-0.255-0.139-0.527-0.252-0.772-0.404C7.03,10.682,6.071,9.756,5.222,8.714
			C4.801,8.196,4.426,7.643,4.164,7.019C4.111,6.893,4.121,6.81,4.224,6.708c0.395-0.382,0.78-0.773,1.167-1.165
			c0.541-0.544,0.541-1.181-0.003-1.728C5.08,3.503,4.771,3.198,4.463,2.886c-0.319-0.318-0.634-0.64-0.956-0.955
			C2.987,1.424,2.336,1.424,1.819,1.935C1.421,2.326,1.04,2.727,0.635,3.112C0.26,3.467,0.071,3.901,0.031,4.409
			c-0.063,0.826,0.14,1.605,0.425,2.365c0.583,1.572,1.473,2.969,2.551,4.248c1.456,1.732,3.194,3.102,5.227,4.09
			c0.915,0.445,1.864,0.787,2.895,0.844c0.711,0.039,1.326-0.141,1.822-0.693c0.338-0.379,0.719-0.723,1.076-1.086
			c0.531-0.537,0.535-1.188,0.008-1.717C13.404,11.824,12.771,11.195,12.137,10.564L12.137,10.564z M12.137,10.564"/>
	</g>
	<path d="M11.504,7.921l1.225-0.209c-0.193-1.125-0.723-2.143-1.529-2.952c-0.854-0.852-1.93-1.39-3.118-1.555l-0.172,1.23
		c0.919,0.129,1.755,0.544,2.416,1.204C10.947,6.263,11.355,7.052,11.504,7.921L11.504,7.921z M11.504,7.921"/>
	<path d="M13.418,2.601c-1.412-1.413-3.201-2.305-5.174-2.581l-0.172,1.23c1.704,0.239,3.251,1.012,4.472,2.229
		c1.156,1.158,1.916,2.62,2.191,4.229L15.959,7.5C15.637,5.636,14.758,3.944,13.418,2.601L13.418,2.601z M13.418,2.601"/>
</g>
</svg>
