<svg version="1.1" class="svg-ico" xmlns="http://www.w3.org/2000/svg" xmlns:xlink="http://www.w3.org/1999/xlink" x="0px" y="0px"
	 width="16px" height="16px" viewBox="0 0 16 16" enable-background="new 0 0 16 16" xml:space="preserve">
<path d="M0.625,12.355l2.261-2.26c0.006-0.008,0.017-0.012,0.023-0.02C2.424,9.131,2.146,8.062,2.146,6.924
	C2.146,3.1,5.247,0,9.073,0C12.898,0,16,3.1,16,6.924c0,3.824-3.102,6.925-6.927,6.925c-1.138,0-2.208-0.279-3.154-0.764
	c-0.006,0.008-0.01,0.016-0.019,0.023l-2.261,2.262c-0.833,0.83-2.183,0.83-3.015,0C-0.208,14.539-0.208,13.188,0.625,12.355z
	 M9.073,11.719c2.647,0,4.797-2.146,4.797-4.794c0-2.647-2.149-4.794-4.797-4.794c-2.649,0-4.795,2.147-4.795,4.794
	C4.278,9.572,6.424,11.719,9.073,11.719z"/>
</svg>
