<svg width="87" height="81" viewBox="0 0 87 81" fill="none" xmlns="http://www.w3.org/2000/svg">
<path d="M57.2556 50.9038L47.8876 45.1477C47.7735 45.0775 47.6422 45.0299 47.5098 45.0092L44.5768 44.4917C44.0343 44.3957 43.5014 44.769 43.4057 45.3116C43.3101 45.8542 43.6829 46.387 44.2255 46.4827L46.9932 46.9711L56.1973 52.6265C56.6466 52.9027 57.2629 52.7686 57.5611 52.3346C57.8811 51.8689 57.7366 51.1996 57.2556 50.9038Z" fill="black"/>
<path d="M85.7916 45.0654C85.4103 44.6575 84.7707 44.6359 84.3627 45.017L73.075 55.0096L54.297 36.4817L78.5546 13.7483C78.9619 13.3666 78.9826 12.7268 78.601 12.3196C78.2193 11.9123 77.5795 11.8915 77.1722 12.2732L52.1475 35.7254C51.7349 36.1121 51.7262 36.7854 52.1288 37.1826L53.7898 38.8213L53.2596 39.2894L42.1575 38.3334C41.9862 38.3189 41.8082 38.3484 41.6518 38.4206L32.8553 42.4269C32.8296 42.4203 32.804 42.4138 32.7775 42.4091L27.7176 41.5162L28.1267 40.4703C28.329 39.953 28.0763 39.3695 27.5607 39.1634L5.38665 28.6939C4.86807 28.4862 4.27995 28.7386 4.07268 29.257C3.86528 29.7754 4.11742 30.3637 4.63587 30.571L25.8783 40.6681L16.8959 63.6226L1.34865 57.6579C0.82225 57.4716 0.244644 57.747 0.0582625 58.2733C-0.128119 58.7996 0.147478 59.3773 0.673738 59.5637L17.1433 65.855C17.6511 66.0349 18.226 65.7717 18.4221 65.2704L19.9233 61.4342L23.8567 63.6384L23.4229 64.3416C22.1937 66.3338 22.8143 68.9548 24.8066 70.1841C25.8602 70.8342 27.1681 70.9884 28.3454 70.6073C28.5343 71.8342 29.2553 72.929 30.3125 73.5813C31.3661 74.2314 32.6739 74.3856 33.8513 74.0044C34.0402 75.2313 34.761 76.326 35.8182 76.9785C36.875 77.6306 38.1761 77.7841 39.3573 77.4028C39.5465 78.6292 40.2671 79.7235 41.3241 80.3756C42.8603 81.3234 44.8936 81.1818 46.2783 80.0212C46.6274 79.7286 46.9278 79.3794 47.1668 78.9919L47.8564 77.8744L48.4242 78.2232C49.9624 79.1683 51.9952 79.0227 53.3778 77.8596C53.7263 77.5663 54.026 77.2166 54.2644 76.8286C54.7383 76.0573 54.9343 75.1929 54.8826 74.3515C55.2036 74.4287 55.5322 74.4702 55.8637 74.4702C57.3318 74.4702 58.7206 73.696 59.4889 72.4456C59.9517 71.6923 60.1631 70.8334 60.1095 69.9689C60.4297 70.0457 60.7576 70.0869 61.088 70.0869C62.5562 70.0869 63.9451 69.3127 64.7132 68.0623C65.1764 67.3085 65.3877 66.4491 65.3337 65.5839C65.6574 65.661 65.9861 65.7013 66.3133 65.7013C67.741 65.7013 69.137 64.9824 69.9377 63.6794C71.1633 61.6847 70.5377 59.065 68.543 57.8394L67.8503 57.4138L70.1735 54.9864L72.3466 57.1305C72.7277 57.5064 73.3559 57.5148 73.7468 57.1496L85.7437 46.4944C86.1513 46.1131 86.1729 45.4734 85.7916 45.0654ZM28.9287 67.7386C28.2847 68.7821 26.9118 69.1072 25.8682 68.4635C24.8246 67.8196 24.4995 66.4468 25.1433 65.4031L30.8053 56.2268C31.4372 55.2026 32.7933 54.8677 33.8287 55.4794C34.9001 56.1128 35.1957 57.5816 34.5525 58.6243L28.9287 67.7386ZM34.4343 71.1358C33.7905 72.1793 32.4175 72.5045 31.374 71.8607C30.3431 71.2245 30.012 69.8329 30.6491 68.8003L35.1786 61.4592C35.8105 60.4351 37.1665 60.1001 38.202 60.7118C39.2733 61.3452 39.569 62.814 38.9256 63.8567L34.4343 71.1358ZM39.9406 74.533C39.6284 75.0385 39.1382 75.3924 38.5603 75.5293C37.982 75.6664 37.3854 75.5697 36.8799 75.2579C35.8491 74.6217 35.518 73.2299 36.1551 72.1975L39.5523 66.6916C40.1842 65.6674 41.5404 65.3325 42.5756 65.9442C43.647 66.5776 43.9427 68.0464 43.2995 69.0891L39.9406 74.533ZM47.6729 74.3218L45.4463 77.9303C44.8101 78.9613 43.4185 79.2921 42.3858 78.6551C41.3549 78.019 41.0239 76.6271 41.661 75.5947L43.9257 71.9242C44.5576 70.9002 45.9138 70.5648 46.9491 71.1769C48.0205 71.8102 48.3161 73.2791 47.6729 74.3218ZM66.0878 56.3308L61.077 53.2519C60.6123 52.9663 59.972 53.1192 59.6866 53.5839C59.401 54.0486 59.554 54.6889 60.0187 54.9743L67.4843 59.5616C68.529 60.2036 68.8567 61.5758 68.2148 62.6206C67.5728 63.6653 66.2005 63.9931 65.1557 63.3512L57.1488 58.4312C56.6732 58.1387 56.0506 58.2876 55.7584 58.7632C55.4663 59.2388 55.6149 59.8614 56.0905 60.1536L62.2601 63.9446C63.2923 64.5788 63.6258 65.97 62.9906 67.0036C62.3564 68.0358 60.9652 68.3692 59.9316 67.7342L54.3404 64.2986C53.8647 64.0063 53.2422 64.1551 52.9501 64.6307C52.6579 65.1063 52.8065 65.7289 53.2821 66.021L57.0359 68.3276C58.0679 68.9619 58.4016 70.3528 57.7664 71.3866C57.1322 72.4186 55.7411 72.7523 54.7074 72.1172C54.7074 72.1172 51.4062 70.0907 51.3753 70.0759C50.9137 69.853 50.3493 70.0116 50.0755 70.4574C49.7833 70.933 49.932 71.5556 50.4076 71.8478L51.8117 72.7106C52.8564 73.3526 53.184 74.7248 52.5421 75.7696C51.9079 76.8018 50.5167 77.1352 49.4831 76.5002L48.9187 76.1533L49.394 75.3828C50.0016 74.398 50.1902 73.1851 49.9112 72.0552C49.636 70.9401 48.9495 70.01 47.9785 69.436C47.2209 68.9883 46.3733 68.8069 45.548 68.8626C45.703 68.1968 45.7038 67.4953 45.5378 66.8226C45.2626 65.7076 44.5761 64.7774 43.6051 64.2035C42.8475 63.7556 41.9999 63.5742 41.1746 63.6299C41.5914 61.8391 40.8241 59.9124 39.2317 58.9709C38.474 58.5232 37.6265 58.3418 36.8012 58.3973C37.218 56.6066 36.4507 54.6798 34.8583 53.7384C32.8814 52.5698 30.2919 53.2098 29.0857 55.1644L24.9201 61.9157L20.6672 59.5333L26.9658 43.4366L30.3954 44.0418C29.4199 45.2534 29.1457 46.9591 29.833 48.4686C30.5443 50.0303 32.0895 50.9544 33.7032 50.9542C34.2909 50.9542 34.8878 50.8316 35.4566 50.5726L41.3766 47.8762C41.878 47.6479 42.106 47.0386 41.8776 46.5373C41.6493 46.0361 41.04 45.8078 40.5387 46.0364L34.6185 48.7326C33.5028 49.2409 32.1812 48.7465 31.6728 47.6305C31.1646 46.5145 31.6589 45.1931 32.7749 44.6848L42.2482 40.3703L53.517 41.3407C53.546 41.3433 53.575 41.3445 53.6038 41.3445C53.8491 41.3445 54.0872 41.2551 54.2728 41.0915L55.232 40.2445L68.7337 53.566L66.0878 56.3308Z" fill="black"/>
<path d="M55 16.5C55 25.6127 47.6127 33 38.5 33C29.3873 33 22 25.6127 22 16.5C22 7.3873 29.3873 0 38.5 0C47.6127 0 55 7.3873 55 16.5Z" fill="url(#paint0_linear)"/>
<path d="M44.3099 12.6947C44.7071 12.311 45.3402 12.322 45.7239 12.7193C46.1075 13.1166 46.0965 13.7496 45.6992 14.1333L38.5061 21.0802C38.1089 21.4639 37.4758 21.4528 37.0921 21.0556C36.7085 20.6583 36.7195 20.0252 37.1167 19.6416L44.3099 12.6947Z" fill="white"/>
<path d="M33.7252 15.4058C33.3279 15.0221 32.6948 15.0331 32.3112 15.4304C31.9275 15.8277 31.9385 16.4607 32.3358 16.8444L36.8913 21.2439C37.2886 21.6276 37.9216 21.6166 38.3053 21.2193C38.689 20.8221 38.6779 20.189 38.2807 19.8053L33.7252 15.4058Z" fill="white"/>
<defs>
<linearGradient id="paint0_linear" x1="38.5" y1="0" x2="38.5" y2="33" gradientUnits="userSpaceOnUse">
<stop stop-color="#FFA41B"/>
<stop offset="1" stop-color="#EE4215"/>
</linearGradient>
</defs>
</svg>
