<svg width="88" height="68" viewBox="0 0 88 68" fill="none" xmlns="http://www.w3.org/2000/svg">
<path d="M81 16C81 15.4477 81.4477 15 82 15C82.5523 15 83 15.4477 83 16V67C83 67.5523 82.5523 68 82 68C81.4477 68 81 67.5523 81 67V16Z" fill="black"/>
<path d="M72 20H74V68H72V20Z" fill="black"/>
<path d="M18 20H20V68H18V20Z" fill="black"/>
<path d="M20 27H72V50H20V27Z" fill="url(#paint0_linear)"/>
<path d="M74 19L74 21L18 21L18 19L74 19Z" fill="black"/>
<path d="M74 25L74 27L18 27L18 25L74 25Z" fill="black"/>
<path d="M9 16C9 15.4477 9.44772 15 10 15C10.5523 15 11 15.4477 11 16V67C11 67.5523 10.5523 68 10 68C9.44772 68 9 67.5523 9 67V16Z" fill="black"/>
<path d="M86 66C86.5523 66 87 66.4478 87 67C87 67.5523 86.5523 68 86 68L1 68C0.447716 68 -6.78527e-08 67.5523 -4.37115e-08 67C-1.95703e-08 66.4478 0.447716 66 1 66L86 66Z" fill="black"/>
<path d="M48 51C48 50.4477 48.4477 50 49 50H73C73.5523 50 74 50.4477 74 51V68H48V51Z" fill="white"/>
<path d="M33 34C33 33.4477 33.4477 33 34 33H58C58.5523 33 59 33.4477 59 34V52H33V34Z" fill="white"/>
<path fill-rule="evenodd" clip-rule="evenodd" d="M50 52V66H72V52H50ZM49 50C48.4477 50 48 50.4478 48 51V68H74V51C74 50.4478 73.5523 50 73 50H49Z" fill="black"/>
<path d="M36 51C36 50.4478 36.4477 50 37 50H49C49.5523 50 50 50.4478 50 51V68H36V51Z" fill="white"/>
<path fill-rule="evenodd" clip-rule="evenodd" d="M38 52V66H48V52H38ZM37 50C36.4477 50 36 50.4478 36 51V68H50V51C50 50.4478 49.5523 50 49 50H37Z" fill="black"/>
<path d="M5.25882 12.0951C5.11588 11.5617 5.43246 11.0133 5.96593 10.8704L45.5689 0.258819C46.1023 0.115878 46.6507 0.43246 46.7936 0.965926C46.9366 1.49939 46.62 2.04773 46.0865 2.19067L6.48356 12.8023C5.9501 12.9452 5.40176 12.6286 5.25882 12.0951Z" fill="black"/>
<path d="M87.109 12.1797C87.252 11.6462 86.9354 11.0979 86.4019 10.9549L46.799 0.343353C46.2655 0.200411 45.7172 0.516994 45.5742 1.05046C45.4313 1.58393 45.7479 2.13226 46.2813 2.2752L85.8843 12.8868C86.4178 13.0297 86.9661 12.7131 87.109 12.1797Z" fill="black"/>
<path fill-rule="evenodd" clip-rule="evenodd" d="M35 35V50H57V35H35ZM34 33C33.4477 33 33 33.4478 33 34V52H59V34C59 33.4478 58.5523 33 58 33H34Z" fill="black"/>
<path d="M4 43C4 42.4478 4.44772 42 5 42H37C37.5523 42 38 42.4478 38 43V68H4V43Z" fill="white"/>
<path fill-rule="evenodd" clip-rule="evenodd" d="M6 44V66H36V44H6ZM5 42C4.44772 42 4 42.4478 4 43V68H38V43C38 42.4478 37.5523 42 37 42H5Z" fill="black"/>
<defs>
<linearGradient id="paint0_linear" x1="46" y1="27" x2="46" y2="50" gradientUnits="userSpaceOnUse">
<stop stop-color="#FFA41B"/>
<stop offset="1" stop-color="#EE4215"/>
</linearGradient>
</defs>
</svg>
