<svg width="87" height="71" viewBox="0 0 87 71" fill="none" xmlns="http://www.w3.org/2000/svg">
<path d="M8 44C8 43.4477 8.44772 43 9 43H85V45H9C8.44772 45 8 44.5523 8 44Z" fill="black"/>
<path d="M36 57H38V67H36V57Z" fill="black"/>
<path d="M55 57H57V67H55V57Z" fill="black"/>
<path d="M32 67C32 66.4477 32.4477 66 33 66H60C60.5523 66 61 66.4477 61 67C61 67.5523 60.5523 68 60 68H33C32.4477 68 32 67.5523 32 67Z" fill="black"/>
<path d="M19 16C19 15.4477 19.4477 15 20 15H34C34.5523 15 35 15.4477 35 16C35 16.5523 34.5523 17 34 17H20C19.4477 17 19 16.5523 19 16Z" fill="black"/>
<path d="M19 24C19 23.4477 19.4477 23 20 23H34C34.5523 23 35 23.4477 35 24C35 24.5523 34.5523 25 34 25H20C19.4477 25 19 24.5523 19 24Z" fill="black"/>
<path d="M44 2H76V43H44V2Z" fill="url(#paint0_linear)"/>
<path fill-rule="evenodd" clip-rule="evenodd" d="M7 6C7 2.68629 9.68629 0 13 0H81C84.3137 0 87 2.68629 87 6V51C87 54.3137 84.3137 57 81 57H13C9.68629 57 7 54.3137 7 51V6ZM13 2C10.7909 2 9 3.79086 9 6V51C9 53.2091 10.7909 55 13 55H81C83.2091 55 85 53.2091 85 51V6C85 3.79086 83.2091 2 81 2H13Z" fill="black"/>
<path d="M64.9476 15.6947C65.3448 15.311 65.9779 15.322 66.3616 15.7193C66.7452 16.1166 66.7342 16.7496 66.3369 17.1333L54.1086 28.943C53.7114 29.3267 53.0783 29.3156 52.6946 28.9184C52.311 28.5211 52.322 27.888 52.7193 27.5044L64.9476 15.6947Z" fill="white"/>
<path fill-rule="evenodd" clip-rule="evenodd" d="M55.5 16C54.6716 16 54 16.6716 54 17.5C54 18.3284 54.6716 19 55.5 19C56.3284 19 57 18.3284 57 17.5C57 16.6716 56.3284 16 55.5 16ZM52 17.5C52 15.567 53.567 14 55.5 14C57.433 14 59 15.567 59 17.5C59 19.433 57.433 21 55.5 21C53.567 21 52 19.433 52 17.5Z" fill="white"/>
<path fill-rule="evenodd" clip-rule="evenodd" d="M64.5 25C63.6716 25 63 25.6716 63 26.5C63 27.3284 63.6716 28 64.5 28C65.3284 28 66 27.3284 66 26.5C66 25.6716 65.3284 25 64.5 25ZM61 26.5C61 24.567 62.567 23 64.5 23C66.433 23 68 24.567 68 26.5C68 28.433 66.433 30 64.5 30C62.567 30 61 28.433 61 26.5Z" fill="white"/>
<defs>
<linearGradient id="paint0_linear" x1="60" y1="2" x2="60" y2="43" gradientUnits="userSpaceOnUse">
<stop stop-color="#FE9620"/>
<stop offset="1" stop-color="#E94B30"/>
</linearGradient>
</defs>
</svg>
