<svg width="49" height="40" viewBox="0 0 49 40" fill="none" xmlns="http://www.w3.org/2000/svg">
<path d="M4.47473 24.6106C4.47473 24.3017 4.72515 24.0513 5.03406 24.0513H47.5433V25.1699H5.03406C4.72515 25.1699 4.47473 24.9195 4.47473 24.6106Z" fill="black"/>
<path d="M20.1359 31.882H21.2545V37.4753H20.1359V31.882Z" fill="black"/>
<path d="M30.7633 31.882H31.882V37.4753H30.7633V31.882Z" fill="black"/>
<path d="M17.8987 37.4753C17.8987 37.1664 18.1491 36.916 18.458 36.916H33.56C33.8689 36.916 34.1193 37.1664 34.1193 37.4753C34.1193 37.7842 33.8689 38.0346 33.56 38.0346H18.458C18.1491 38.0346 17.8987 37.7842 17.8987 37.4753Z" fill="black"/>
<path d="M10.6273 8.94935C10.6273 8.64044 10.8777 8.39001 11.1867 8.39001H19.0173C19.3262 8.39001 19.5766 8.64044 19.5766 8.94935C19.5766 9.25826 19.3262 9.50868 19.0173 9.50868H11.1867C10.8777 9.50868 10.6273 9.25826 10.6273 8.94935Z" fill="black"/>
<path d="M10.6273 13.424C10.6273 13.115 10.8777 12.8646 11.1867 12.8646H19.0173C19.3262 12.8646 19.5766 13.115 19.5766 13.424C19.5766 13.7329 19.3262 13.9833 19.0173 13.9833H11.1867C10.8777 13.9833 10.6273 13.7329 10.6273 13.424Z" fill="black"/>
<path d="M24.6106 1.11865H42.5092V24.0513H24.6106V1.11865Z" fill="url(#paint0_linear)"/>
<path fill-rule="evenodd" clip-rule="evenodd" d="M3.91541 3.35599C3.91541 1.50253 5.41794 0 7.2714 0H45.306C47.1595 0 48.662 1.50253 48.662 3.356V28.526C48.662 30.3794 47.1595 31.882 45.306 31.882H7.2714C5.41794 31.882 3.91541 30.3794 3.91541 28.526V3.35599ZM7.2714 1.11867C6.03576 1.11867 5.03407 2.12035 5.03407 3.35599V28.526C5.03407 29.7616 6.03576 30.7633 7.2714 30.7633H45.306C46.5417 30.7633 47.5433 29.7616 47.5433 28.526V3.356C47.5433 2.12035 46.5417 1.11867 45.306 1.11867H7.2714Z" fill="black"/>
<path d="M36.3274 8.77858C36.5496 8.56398 36.9037 8.57015 37.1183 8.79235C37.3329 9.01455 37.3267 9.36865 37.1045 9.58324L30.2648 16.1888C30.0426 16.4034 29.6885 16.3972 29.4739 16.175C29.2593 15.9528 29.2655 15.5987 29.4877 15.3841L36.3274 8.77858Z" fill="white"/>
<path fill-rule="evenodd" clip-rule="evenodd" d="M31.043 8.94929C30.5796 8.94929 30.204 9.32493 30.204 9.78829C30.204 10.2517 30.5796 10.6273 31.043 10.6273C31.5064 10.6273 31.882 10.2517 31.882 9.78829C31.882 9.32493 31.5064 8.94929 31.043 8.94929ZM29.0853 9.78829C29.0853 8.7071 29.9618 7.83063 31.043 7.83063C32.1242 7.83063 33.0007 8.7071 33.0007 9.78829C33.0007 10.8695 32.1242 11.746 31.043 11.746C29.9618 11.746 29.0853 10.8695 29.0853 9.78829Z" fill="white"/>
<path fill-rule="evenodd" clip-rule="evenodd" d="M36.0769 13.9833C35.6136 13.9833 35.2379 14.3589 35.2379 14.8223C35.2379 15.2857 35.6136 15.6613 36.0769 15.6613C36.5403 15.6613 36.9159 15.2857 36.9159 14.8223C36.9159 14.3589 36.5403 13.9833 36.0769 13.9833ZM34.1193 14.8223C34.1193 13.7411 34.9957 12.8646 36.0769 12.8646C37.1581 12.8646 38.0346 13.7411 38.0346 14.8223C38.0346 15.9035 37.1581 16.78 36.0769 16.78C34.9957 16.78 34.1193 15.9035 34.1193 14.8223Z" fill="white"/>
<defs>
<linearGradient id="paint0_linear" x1="33.5599" y1="1.11865" x2="33.5599" y2="24.0513" gradientUnits="userSpaceOnUse">
<stop stop-color="#FE9620"/>
<stop offset="1" stop-color="#E94B30"/>
</linearGradient>
</defs>
</svg>
