<svg width="75" height="74" viewBox="0 0 75 74" fill="none" xmlns="http://www.w3.org/2000/svg">
<path d="M0 4C0 1.79086 1.79086 0 4 0H41.8521C42.9323 0 43.9665 0.436861 44.7196 1.21122L55.8675 12.6739C56.5937 13.4206 57 14.4211 57 15.4626V67C57 69.2091 55.2091 71 53 71H4C1.79086 71 0 69.2091 0 67V4Z" fill="white"/>
<path fill-rule="evenodd" clip-rule="evenodd" d="M41 12V2H43V12C43 13.1046 43.8954 14 45 14H55V16H45C42.7909 16 41 14.2091 41 12Z" fill="black"/>
<path fill-rule="evenodd" clip-rule="evenodd" d="M24.6952 47.2811C25.0922 47.6651 25.1028 48.2981 24.7189 48.6952L17.9496 55.6952C17.7612 55.89 17.5018 56 17.2308 56C16.9597 56 16.7003 55.89 16.5119 55.6952L12.2811 51.3202C11.8972 50.9231 11.9078 50.2901 12.3048 49.9061C12.7019 49.5222 13.3349 49.5328 13.7189 49.9298L17.2308 53.5615L23.2811 47.3048C23.6651 46.9078 24.2981 46.8972 24.6952 47.2811Z" fill="black"/>
<path d="M11 19C11 18.4477 11.4477 18 12 18H28C28.5523 18 29 18.4477 29 19C29 19.5523 28.5523 20 28 20H12C11.4477 20 11 19.5523 11 19Z" fill="black"/>
<path d="M11 27C11 26.4477 11.4477 26 12 26H37C37.5523 26 38 26.4477 38 27C38 27.5523 37.5523 28 37 28H12C11.4477 28 11 27.5523 11 27Z" fill="black"/>
<path fill-rule="evenodd" clip-rule="evenodd" d="M38 70C38 69.4477 37.5523 69 37 69H4C2.89543 69 2 68.1046 2 67V4C2 2.89543 2.89543 2 4 2H41.8521C42.3922 2 42.9093 2.21843 43.2859 2.60561L54.4338 14.0683C54.7969 14.4416 55 14.9419 55 15.4626V20C55 20.5523 55.4477 21 56 21C56.5523 21 57 20.5523 57 20V15.4626C57 14.4211 56.5937 13.4206 55.8675 12.6739L44.7196 1.21122C43.9665 0.436861 42.9323 0 41.8521 0H4C1.79086 0 0 1.79086 0 4V67C0 69.2091 1.79086 71 4 71H37C37.5523 71 38 70.5523 38 70Z" fill="black"/>
<path d="M51.7391 59.1153H64.7391V52.1153C64.7391 51.0108 63.8437 50.1153 62.7391 50.1153H53.7391C52.6346 50.1153 51.7391 51.0108 51.7391 52.1153V59.1153Z" fill="white"/>
<path fill-rule="evenodd" clip-rule="evenodd" d="M62.7391 57.1153H53.7391L53.7391 52.1153H62.7391V57.1153ZM51.7391 59.1153V52.1153C51.7391 51.0108 52.6346 50.1153 53.7391 50.1153H62.7391C63.8437 50.1153 64.7391 51.0108 64.7391 52.1153V59.1153H51.7391Z" fill="black"/>
<path d="M66 32.4928C65.3182 37.261 62.3848 52.1159 62.3848 52.1159H54.172C54.172 52.1159 51.4447 37.261 50.7629 32.4928C50.7629 28.3546 54.3579 25 58.5 25C62.6421 25 66 28.3546 66 32.4928Z" fill="url(#paint0_linear)"/>
<path fill-rule="evenodd" clip-rule="evenodd" d="M62.3848 52.1159C62.3848 52.1159 65.3182 37.261 66 32.4928C66 28.3546 62.6421 25 58.5 25C54.3579 25 50.7629 28.3546 50.7629 32.4928C51.4447 37.261 54.172 52.1159 54.172 52.1159H62.3848ZM55.8398 50.1159C55.7978 49.8849 55.752 49.6331 55.703 49.3631C55.437 47.8975 55.0752 45.894 54.6922 43.742C53.9395 39.513 53.1134 34.758 52.7646 32.3613C52.8409 29.4656 55.4256 27 58.5 27C61.4948 27 63.9277 29.3894 63.9984 32.3598C63.6495 34.7428 62.7758 39.4864 61.9718 43.7192C61.5633 45.8702 61.1759 47.873 60.8906 49.3381C60.8362 49.6179 60.7854 49.8781 60.739 50.1159H55.8398Z" fill="black"/>
<path d="M44.7826 65.6911H71.7826V72.6911C71.7826 73.2434 71.3349 73.6911 70.7826 73.6911H45.7826C45.2303 73.6911 44.7826 73.2434 44.7826 72.6911V65.6911Z" fill="url(#paint1_linear)"/>
<path fill-rule="evenodd" clip-rule="evenodd" d="M69.7826 67.6911H46.7826V71.6911H69.7826V67.6911ZM44.7826 65.6911V72.6911C44.7826 73.2434 45.2303 73.6911 45.7826 73.6911H70.7826C71.3349 73.6911 71.7826 73.2434 71.7826 72.6911V65.6911H44.7826Z" fill="black"/>
<path d="M42 60.7214C42 59.0646 43.3431 57.7214 45 57.7214H71C72.6569 57.7214 74 59.0646 74 60.7214V65.7214C74 66.2737 73.5523 66.7214 73 66.7214H43C42.4477 66.7214 42 66.2737 42 65.7214V60.7214Z" fill="white"/>
<path fill-rule="evenodd" clip-rule="evenodd" d="M41 60.7214C41 58.5123 42.7909 56.7214 45 56.7214H71C73.2091 56.7214 75 58.5123 75 60.7214V65.7214C75 66.826 74.1046 67.7214 73 67.7214H43C41.8954 67.7214 41 66.826 41 65.7214V60.7214ZM45 58.7214C43.8954 58.7214 43 59.6169 43 60.7214V65.7214H73V60.7214C73 59.6169 72.1046 58.7214 71 58.7214H45Z" fill="black"/>
<defs>
<linearGradient id="paint0_linear" x1="58.3814" y1="25" x2="58.3814" y2="52.1159" gradientUnits="userSpaceOnUse">
<stop stop-color="#FE9620"/>
<stop offset="1" stop-color="#E94B30"/>
</linearGradient>
<linearGradient id="paint1_linear" x1="58.2826" y1="65.6911" x2="58.2826" y2="73.6911" gradientUnits="userSpaceOnUse">
<stop stop-color="#FE9620"/>
<stop offset="1" stop-color="#E94B30"/>
</linearGradient>
</defs>
</svg>
