<svg width="47" height="43" viewBox="0 0 47 43" fill="none" xmlns="http://www.w3.org/2000/svg">
<path fill-rule="evenodd" clip-rule="evenodd" d="M31.4073 25.0951C31.4529 24.7859 31.7405 24.5723 32.0496 24.6179L45.4282 26.5912C45.9834 26.6731 46.3947 27.1495 46.3947 27.7106V38.4737C46.3947 38.7861 46.1413 39.0395 45.8289 39.0395H31.4012C31.0888 39.0395 30.8354 38.7861 30.8354 38.4737C30.8354 38.1612 31.0888 37.9079 31.4012 37.9079H45.2631L45.2631 27.7106L31.8845 25.7374C31.5753 25.6918 31.3617 25.4042 31.4073 25.0951Z" fill="black"/>
<path fill-rule="evenodd" clip-rule="evenodd" d="M40.8387 18.6711H31.967V17.5395H40.8387C41.3781 17.5395 41.8425 17.9202 41.9483 18.4491L43.5547 26.4812L42.4451 26.7031L40.8387 18.6711Z" fill="black"/>
<path d="M43.5658 37.9079C43.5658 40.7202 41.286 43 38.4737 43C35.6614 43 33.3816 40.7202 33.3816 37.9079C33.3816 35.0956 35.6614 32.8158 38.4737 32.8158C41.286 32.8158 43.5658 35.0956 43.5658 37.9079Z" fill="white"/>
<path fill-rule="evenodd" clip-rule="evenodd" d="M38.4737 41.8684C40.661 41.8684 42.4342 40.0952 42.4342 37.9079C42.4342 35.7206 40.661 33.9474 38.4737 33.9474C36.2864 33.9474 34.5132 35.7206 34.5132 37.9079C34.5132 40.0952 36.2864 41.8684 38.4737 41.8684ZM38.4737 43C41.286 43 43.5658 40.7202 43.5658 37.9079C43.5658 35.0956 41.286 32.8158 38.4737 32.8158C35.6614 32.8158 33.3816 35.0956 33.3816 37.9079C33.3816 40.7202 35.6614 43 38.4737 43Z" fill="black"/>
<path d="M40.7368 37.9079C40.7368 39.1578 39.7235 40.171 38.4736 40.171C37.2237 40.171 36.2104 39.1578 36.2104 37.9079C36.2104 36.658 37.2237 35.6447 38.4736 35.6447C39.7235 35.6447 40.7368 36.658 40.7368 37.9079Z" fill="white"/>
<path fill-rule="evenodd" clip-rule="evenodd" d="M38.4736 39.0395C39.0986 39.0395 39.6052 38.5328 39.6052 37.9079C39.6052 37.2829 39.0986 36.7763 38.4736 36.7763C37.8487 36.7763 37.342 37.2829 37.342 37.9079C37.342 38.5328 37.8487 39.0395 38.4736 39.0395ZM38.4736 40.171C39.7235 40.171 40.7368 39.1578 40.7368 37.9079C40.7368 36.658 39.7235 35.6447 38.4736 35.6447C37.2237 35.6447 36.2104 36.658 36.2104 37.9079C36.2104 39.1578 37.2237 40.171 38.4736 40.171Z" fill="black"/>
<path d="M1.13159 19.8026H31.1184V30.5526H1.13159V19.8026Z" fill="url(#paint0_linear)"/>
<path fill-rule="evenodd" clip-rule="evenodd" d="M3.39474 12.4474C3.39474 12.1349 3.14142 11.8816 2.82895 11.8816H0.565789C0.253313 11.8816 0 12.1349 0 12.4474V38.4737C0 38.7862 0.253312 39.0395 0.565789 39.0395H31.6842C31.9967 39.0395 32.25 38.7862 32.25 38.4737V12.4474C32.25 12.1349 31.9967 11.8816 31.6842 11.8816H29.4211C29.1086 11.8816 28.8553 12.1349 28.8553 12.4474C28.8553 12.7599 29.1086 13.0132 29.4211 13.0132H31.1184V37.9079H1.13158V13.0132H2.82895C3.14142 13.0132 3.39474 12.7599 3.39474 12.4474Z" fill="black"/>
<path d="M26.5922 12.7303C26.5922 18.5111 21.9059 23.1974 16.1251 23.1974C10.3442 23.1974 5.65796 18.5111 5.65796 12.7303C5.65796 6.94947 10.3442 2.26318 16.1251 2.26318C21.9059 2.26318 26.5922 6.94947 26.5922 12.7303Z" fill="white"/>
<path fill-rule="evenodd" clip-rule="evenodd" d="M16.1251 22.0658C21.2809 22.0658 25.4606 17.8862 25.4606 12.7303C25.4606 7.57442 21.2809 3.39476 16.1251 3.39476C10.9692 3.39476 6.78954 7.57442 6.78954 12.7303C6.78954 17.8862 10.9692 22.0658 16.1251 22.0658ZM16.1251 23.1974C21.9059 23.1974 26.5922 18.5111 26.5922 12.7303C26.5922 6.94947 21.9059 2.26318 16.1251 2.26318C10.3442 2.26318 5.65796 6.94947 5.65796 12.7303C5.65796 18.5111 10.3442 23.1974 16.1251 23.1974Z" fill="black"/>
<path d="M24.329 12.7303C24.329 17.2612 20.656 20.9342 16.1251 20.9342C11.5942 20.9342 7.92114 17.2612 7.92114 12.7303C7.92114 8.19934 11.5942 4.52631 16.1251 4.52631C20.656 4.52631 24.329 8.19934 24.329 12.7303Z" fill="white"/>
<path fill-rule="evenodd" clip-rule="evenodd" d="M16.4078 13.0132C16.7203 13.0132 16.9736 12.7598 16.9736 12.4474C16.9736 12.1349 16.7203 11.8816 16.4078 11.8816C16.0953 11.8816 15.842 12.1349 15.842 12.4474C15.842 12.7598 16.0953 13.0132 16.4078 13.0132ZM16.4078 14.1447C17.3452 14.1447 18.1052 13.3848 18.1052 12.4474C18.1052 11.5099 17.3452 10.75 16.4078 10.75C15.4704 10.75 14.7104 11.5099 14.7104 12.4474C14.7104 13.3848 15.4704 14.1447 16.4078 14.1447Z" fill="black"/>
<path d="M10.8984 7.15131C10.6867 6.92145 10.7015 6.56352 10.9313 6.35185C11.1612 6.14018 11.5191 6.15493 11.7308 6.38479L15.9467 10.9631C16.1584 11.1929 16.1436 11.5509 15.9137 11.7625C15.6839 11.9742 15.3259 11.9595 15.1143 11.7296L10.8984 7.15131Z" fill="black"/>
<path d="M15.842 1.13159H16.9736V2.82896H15.842V1.13159Z" fill="black"/>
<path d="M14.1448 0H18.6711V1.13158H14.1448V0Z" fill="black"/>
<path d="M15.2763 37.9079C15.2763 40.7202 12.9964 43 10.1841 43C7.37185 43 5.09204 40.7202 5.09204 37.9079C5.09204 35.0956 7.37185 32.8158 10.1841 32.8158C12.9964 32.8158 15.2763 35.0956 15.2763 37.9079Z" fill="white"/>
<path fill-rule="evenodd" clip-rule="evenodd" d="M10.1841 41.8684C12.3715 41.8684 14.1447 40.0952 14.1447 37.9079C14.1447 35.7206 12.3715 33.9474 10.1841 33.9474C7.99681 33.9474 6.22362 35.7206 6.22362 37.9079C6.22362 40.0952 7.99681 41.8684 10.1841 41.8684ZM10.1841 43C12.9964 43 15.2763 40.7202 15.2763 37.9079C15.2763 35.0956 12.9964 32.8158 10.1841 32.8158C7.37185 32.8158 5.09204 35.0956 5.09204 37.9079C5.09204 40.7202 7.37185 43 10.1841 43Z" fill="black"/>
<path d="M12.4475 37.9079C12.4475 39.1578 11.4342 40.171 10.1843 40.171C8.93439 40.171 7.92114 39.1578 7.92114 37.9079C7.92114 36.658 8.93439 35.6447 10.1843 35.6447C11.4342 35.6447 12.4475 36.658 12.4475 37.9079Z" fill="white"/>
<path fill-rule="evenodd" clip-rule="evenodd" d="M10.1843 39.0395C10.8093 39.0395 11.3159 38.5328 11.3159 37.9079C11.3159 37.2829 10.8093 36.7763 10.1843 36.7763C9.55935 36.7763 9.05272 37.2829 9.05272 37.9079C9.05272 38.5328 9.55935 39.0395 10.1843 39.0395ZM10.1843 40.171C11.4342 40.171 12.4475 39.1578 12.4475 37.9079C12.4475 36.658 11.4342 35.6447 10.1843 35.6447C8.93439 35.6447 7.92114 36.658 7.92114 37.9079C7.92114 39.1578 8.93439 40.171 10.1843 40.171Z" fill="black"/>
<defs>
<linearGradient id="paint0_linear" x1="16.125" y1="19.8026" x2="16.125" y2="30.5526" gradientUnits="userSpaceOnUse">
<stop stop-color="#FE9620"/>
<stop offset="1" stop-color="#E94B30"/>
</linearGradient>
</defs>
</svg>
