<svg width="40" height="40" viewBox="0 0 40 40" fill="none" xmlns="http://www.w3.org/2000/svg">
<path d="M0 2.13333C0 0.955125 0.955126 0 2.13333 0H22.3211C22.8972 0 23.4488 0.232992 23.8505 0.645982L29.796 6.75939C30.1833 7.15763 30.4 7.69123 30.4 8.24675V35.7333C30.4 36.9115 29.4449 37.8667 28.2667 37.8667H2.13333C0.955125 37.8667 0 36.9115 0 35.7333V2.13333Z" fill="white"/>
<path fill-rule="evenodd" clip-rule="evenodd" d="M21.8667 6.39998V1.06665H22.9334V6.39998C22.9334 6.98909 23.4109 7.46665 24 7.46665H29.3334V8.53332H24C22.8218 8.53332 21.8667 7.57819 21.8667 6.39998Z" fill="black"/>
<path fill-rule="evenodd" clip-rule="evenodd" d="M13.1708 25.2166C13.3825 25.4214 13.3882 25.759 13.1834 25.9707L9.57316 29.7041C9.47267 29.808 9.33432 29.8667 9.18977 29.8667C9.04522 29.8667 8.90686 29.808 8.80638 29.7041L6.54997 27.3707C6.34521 27.159 6.35087 26.8214 6.56261 26.6166C6.77435 26.4118 7.11199 26.4175 7.31675 26.6292L9.18977 28.5661L12.4166 25.2292C12.6214 25.0175 12.959 25.0118 13.1708 25.2166Z" fill="black"/>
<path d="M5.8667 10.1333C5.8667 9.83876 6.10548 9.59998 6.40003 9.59998H14.9334C15.2279 9.59998 15.4667 9.83876 15.4667 10.1333C15.4667 10.4279 15.2279 10.6666 14.9334 10.6666H6.40003C6.10548 10.6666 5.8667 10.4279 5.8667 10.1333Z" fill="black"/>
<path d="M5.8667 14.4C5.8667 14.1054 6.10548 13.8666 6.40003 13.8666H19.7334C20.0279 13.8666 20.2667 14.1054 20.2667 14.4C20.2667 14.6945 20.0279 14.9333 19.7334 14.9333H6.40003C6.10548 14.9333 5.8667 14.6945 5.8667 14.4Z" fill="black"/>
<path fill-rule="evenodd" clip-rule="evenodd" d="M20.2667 37.3333C20.2667 37.0388 20.0279 36.8 19.7333 36.8H2.13333C1.54423 36.8 1.06667 36.3224 1.06667 35.7333V2.13333C1.06667 1.54423 1.54423 1.06667 2.13333 1.06667H22.3211C22.6092 1.06667 22.885 1.18316 23.0858 1.38966L29.0313 7.50307C29.225 7.70219 29.3333 7.96899 29.3333 8.24675V10.6667C29.3333 10.9612 29.5721 11.2 29.8667 11.2C30.1612 11.2 30.4 10.9612 30.4 10.6667V8.24675C30.4 7.69123 30.1833 7.15763 29.796 6.75939L23.8505 0.645982C23.4488 0.232992 22.8972 0 22.3211 0H2.13333C0.955126 0 0 0.955125 0 2.13333V35.7333C0 36.9115 0.955125 37.8667 2.13333 37.8667H19.7333C20.0279 37.8667 20.2667 37.6279 20.2667 37.3333Z" fill="black"/>
<path d="M27.5941 31.5281H34.5275V27.7948C34.5275 27.2057 34.0499 26.7281 33.4608 26.7281H28.6608C28.0717 26.7281 27.5941 27.2057 27.5941 27.7948V31.5281Z" fill="white"/>
<path fill-rule="evenodd" clip-rule="evenodd" d="M33.4608 30.4615H28.6608L28.6608 27.7948H33.4608V30.4615ZM27.5941 31.5281V27.7948C27.5941 27.2057 28.0717 26.7281 28.6608 26.7281H33.4608C34.0499 26.7281 34.5275 27.2057 34.5275 27.7948V31.5281H27.5941Z" fill="black"/>
<path d="M35.2001 17.3295C34.8364 19.8725 33.272 27.7951 33.272 27.7951H28.8918C28.8918 27.7951 27.4372 19.8725 27.0736 17.3295C27.0736 15.1225 28.9909 13.3333 31.2001 13.3333C33.4092 13.3333 35.2001 15.1225 35.2001 17.3295Z" fill="url(#paint0_linear)"/>
<path fill-rule="evenodd" clip-rule="evenodd" d="M33.272 27.7951C33.272 27.7951 34.8364 19.8725 35.2001 17.3295C35.2001 15.1225 33.4092 13.3333 31.2001 13.3333C28.9909 13.3333 27.0736 15.1225 27.0736 17.3295C27.4372 19.8725 28.8918 27.7951 28.8918 27.7951H33.272ZM29.7813 26.7285C29.7589 26.6052 29.7345 26.471 29.7083 26.327C29.5665 25.5453 29.3735 24.4768 29.1692 23.329C28.7678 21.0736 28.3272 18.5376 28.1412 17.2593C28.1819 15.715 29.5604 14.4 31.2001 14.4C32.7973 14.4 34.0948 15.6743 34.1326 17.2585C33.9465 18.5295 33.4805 21.0594 33.0517 23.3169C32.8338 24.4641 32.6272 25.5322 32.4751 26.3136C32.446 26.4629 32.419 26.6016 32.3942 26.7285H29.7813Z" fill="black"/>
<path d="M23.884 35.0353H38.284V38.7686C38.284 39.0632 38.0453 39.3019 37.7507 39.3019H24.4174C24.1228 39.3019 23.884 39.0632 23.884 38.7686V35.0353Z" fill="url(#paint1_linear)"/>
<path fill-rule="evenodd" clip-rule="evenodd" d="M37.2174 36.1019H24.9507V38.2353H37.2174V36.1019ZM23.884 35.0353V38.7686C23.884 39.0632 24.1228 39.3019 24.4174 39.3019H37.7507C38.0453 39.3019 38.284 39.0632 38.284 38.7686V35.0353H23.884Z" fill="black"/>
<path d="M22.4 32.3847C22.4 31.5011 23.1164 30.7847 24 30.7847H37.8667C38.7503 30.7847 39.4667 31.5011 39.4667 32.3847V35.0514C39.4667 35.3459 39.2279 35.5847 38.9334 35.5847H22.9334C22.6388 35.5847 22.4 35.3459 22.4 35.0514V32.3847Z" fill="white"/>
<path fill-rule="evenodd" clip-rule="evenodd" d="M21.8667 32.3847C21.8667 31.2065 22.8218 30.2514 24 30.2514H37.8667C39.0449 30.2514 40 31.2065 40 32.3847V35.0514C40 35.6405 39.5225 36.1181 38.9334 36.1181H22.9334C22.3443 36.1181 21.8667 35.6405 21.8667 35.0514V32.3847ZM24 31.3181C23.4109 31.3181 22.9334 31.7956 22.9334 32.3847V35.0514H38.9334V32.3847C38.9334 31.7956 38.4558 31.3181 37.8667 31.3181H24Z" fill="black"/>
<defs>
<linearGradient id="paint0_linear" x1="31.1368" y1="13.3333" x2="31.1368" y2="27.7951" gradientUnits="userSpaceOnUse">
<stop stop-color="#FE9620"/>
<stop offset="1" stop-color="#E94B30"/>
</linearGradient>
<linearGradient id="paint1_linear" x1="31.084" y1="35.0353" x2="31.084" y2="39.3019" gradientUnits="userSpaceOnUse">
<stop stop-color="#FE9620"/>
<stop offset="1" stop-color="#E94B30"/>
</linearGradient>
</defs>
</svg>
