<svg width="51" height="40" viewBox="0 0 51 40" fill="none" xmlns="http://www.w3.org/2000/svg">
<path d="M46.5908 10.0898C46.5908 9.77217 46.8483 9.51465 47.166 9.51465C47.4837 9.51465 47.7412 9.77217 47.7412 10.0898V39.4248C47.7412 39.7425 47.4837 40 47.166 40C46.8483 40 46.5908 39.7425 46.5908 39.4248V10.0898Z" fill="black"/>
<path d="M41.4141 12.3906H42.5645V40H41.4141V12.3906Z" fill="black"/>
<path d="M10.3535 12.3906H11.5039V40H10.3535V12.3906Z" fill="black"/>
<path d="M11.5039 16.417H41.4141V29.6465H11.5039V16.417Z" fill="url(#paint0_linear)"/>
<path d="M42.5645 11.8154L42.5645 12.9658L10.3535 12.9658L10.3535 11.8154L42.5645 11.8154Z" fill="black"/>
<path d="M42.5645 15.2666L42.5645 16.417L10.3535 16.417L10.3535 15.2666L42.5645 15.2666Z" fill="black"/>
<path d="M5.17676 10.0898C5.17676 9.77217 5.43428 9.51465 5.75195 9.51465C6.06962 9.51465 6.32715 9.77217 6.32715 10.0898V39.4248C6.32715 39.7425 6.06962 40 5.75195 40C5.43428 40 5.17676 39.7425 5.17676 39.4248V10.0898Z" fill="black"/>
<path d="M49.4668 38.8496C49.7845 38.8496 50.042 39.1071 50.042 39.4248C50.042 39.7425 49.7845 40 49.4668 40L0.575191 40C0.257519 40 -3.85373e-06 39.7425 -3.83984e-06 39.4248C-3.82595e-06 39.1071 0.257519 38.8496 0.575191 38.8496L49.4668 38.8496Z" fill="black"/>
<path d="M27.6094 30.2217C27.6094 29.904 27.8669 29.6465 28.1846 29.6465H41.9893C42.3069 29.6465 42.5645 29.904 42.5645 30.2217V40H27.6094V30.2217Z" fill="white"/>
<path d="M18.9814 20.4434C18.9814 20.1257 19.239 19.8682 19.5566 19.8682H33.3613C33.679 19.8682 33.9365 20.1257 33.9365 20.4434V30.7969H18.9814V20.4434Z" fill="white"/>
<path fill-rule="evenodd" clip-rule="evenodd" d="M28.7598 30.7969V38.8496H41.4141V30.7969H28.7598ZM28.1846 29.6465C27.8669 29.6465 27.6094 29.904 27.6094 30.2217V40H42.5645V30.2217C42.5645 29.904 42.3069 29.6465 41.9893 29.6465H28.1846Z" fill="black"/>
<path d="M20.707 30.2217C20.707 29.904 20.9646 29.6465 21.2822 29.6465H28.1846C28.5022 29.6465 28.7598 29.904 28.7598 30.2217V40H20.707V30.2217Z" fill="white"/>
<path fill-rule="evenodd" clip-rule="evenodd" d="M21.8574 30.7969V38.8496H27.6094V30.7969H21.8574ZM21.2822 29.6465C20.9646 29.6465 20.707 29.904 20.707 30.2217V40H28.7598V30.2217C28.7598 29.904 28.5022 29.6465 28.1846 29.6465H21.2822Z" fill="black"/>
<path d="M3.02485 7.8438C2.94263 7.53696 3.12473 7.22156 3.43157 7.13934L26.211 1.0356C26.5179 0.953385 26.8333 1.13548 26.9155 1.44233C26.9977 1.74918 26.8156 2.06458 26.5088 2.1468L3.72932 8.25053C3.42247 8.33275 3.10707 8.15065 3.02485 7.8438Z" fill="black"/>
<path d="M50.1048 7.89239C50.187 7.58554 50.0049 7.27014 49.6981 7.18792L26.9186 1.08419C26.6118 1.00197 26.2964 1.18407 26.2142 1.49091C26.1319 1.79776 26.314 2.11316 26.6209 2.19538L49.4003 8.29911C49.7072 8.38133 50.0226 8.19924 50.1048 7.89239Z" fill="black"/>
<path fill-rule="evenodd" clip-rule="evenodd" d="M20.1318 21.0186V29.6465H32.7861V21.0186H20.1318ZM19.5566 19.8682C19.239 19.8682 18.9814 20.1257 18.9814 20.4434V30.7969H33.9365V20.4434C33.9365 20.1257 33.679 19.8682 33.3613 19.8682H19.5566Z" fill="black"/>
<path d="M2.30078 25.6201C2.30078 25.3024 2.55831 25.0449 2.87598 25.0449H21.2822C21.5999 25.0449 21.8574 25.3024 21.8574 25.6201V40H2.30078V25.6201Z" fill="white"/>
<path fill-rule="evenodd" clip-rule="evenodd" d="M3.45117 26.1953V38.8496H20.707V26.1953H3.45117ZM2.87598 25.0449C2.55831 25.0449 2.30078 25.3024 2.30078 25.6201V40H21.8574V25.6201C21.8574 25.3024 21.5999 25.0449 21.2822 25.0449H2.87598Z" fill="black"/>
<defs>
<linearGradient id="paint0_linear" x1="26.459" y1="16.417" x2="26.459" y2="29.6465" gradientUnits="userSpaceOnUse">
<stop stop-color="#FE9620"/>
<stop offset="1" stop-color="#E94B30"/>
</linearGradient>
</defs>
</svg>
