<svg width="47" height="44" viewBox="0 0 47 44" fill="none" xmlns="http://www.w3.org/2000/svg">
<path d="M31.4766 27.7826L26.4287 24.681C26.3671 24.6431 26.2964 24.6175 26.225 24.6063L24.6446 24.3274C24.3523 24.2757 24.0651 24.4769 24.0136 24.7693C23.962 25.0616 24.1629 25.3488 24.4553 25.4003L25.9467 25.6635L30.9063 28.7109C31.1484 28.8597 31.4805 28.7875 31.6412 28.5536C31.8136 28.3027 31.7358 27.942 31.4766 27.7826Z" fill="black"/>
<path d="M46.8532 24.6366C46.6477 24.4167 46.303 24.4051 46.0832 24.6105L40.0008 29.995L29.8823 20.0112L42.9535 7.76131C43.173 7.55558 43.1842 7.21086 42.9785 6.99141C42.7728 6.77196 42.428 6.76077 42.2086 6.96643L28.724 19.6037C28.5017 19.812 28.497 20.1748 28.7139 20.3889L29.6089 21.2719L29.3233 21.5242L23.3409 21.009C23.2486 21.0012 23.1526 21.0171 23.0684 21.056L18.3284 23.2148C18.3146 23.2112 18.3008 23.2078 18.2865 23.2052L15.5599 22.724L15.7804 22.1604C15.8894 21.8817 15.7532 21.5673 15.4754 21.4563L3.52687 15.8147C3.24743 15.7028 2.93052 15.8388 2.81884 16.1182C2.70708 16.3975 2.84295 16.7145 3.12231 16.8262L14.5688 22.267L9.72863 34.6361L1.35099 31.422C1.06734 31.3217 0.756094 31.47 0.655662 31.7537C0.555231 32.0372 0.703736 32.3486 0.987312 32.449L9.86196 35.8391C10.1356 35.936 10.4454 35.7942 10.551 35.524L11.3599 33.4569L13.4795 34.6446L13.2457 35.0235C12.5833 36.0971 12.9178 37.5094 13.9913 38.1718C14.5591 38.5221 15.2638 38.6052 15.8982 38.3998C16 39.0609 16.3885 39.6509 16.9582 40.0024C17.5259 40.3527 18.2306 40.4357 18.8651 40.2304C18.9669 40.8915 19.3553 41.4814 19.925 41.8329C20.4944 42.1843 21.1955 42.267 21.832 42.0616C21.934 42.7224 22.3222 43.3121 22.8918 43.6635C23.7196 44.1742 24.8152 44.0979 25.5614 43.4725C25.7495 43.3149 25.9114 43.1267 26.0402 42.9179L26.4118 42.3157L26.7177 42.5036C27.5466 43.0129 28.642 42.9345 29.387 42.3077C29.5747 42.1497 29.7362 41.9612 29.8647 41.7522C30.12 41.3366 30.2257 40.8708 30.1978 40.4174C30.3708 40.459 30.5478 40.4814 30.7265 40.4814C31.5176 40.4814 32.2659 40.0642 32.6799 39.3904C32.9293 38.9845 33.0432 38.5217 33.0143 38.0558C33.1869 38.0972 33.3636 38.1194 33.5416 38.1194C34.3327 38.1194 35.0811 37.7022 35.4951 37.0285C35.7447 36.6222 35.8585 36.1592 35.8294 35.6929C36.0038 35.7345 36.1809 35.7562 36.3573 35.7562C37.1266 35.7562 37.8788 35.3688 38.3103 34.6667C38.9707 33.5919 38.6336 32.1802 37.5587 31.5198L37.1855 31.2905L38.4374 29.9825L39.6083 31.1379C39.8137 31.3404 40.1522 31.3449 40.3628 31.1481L46.8273 25.4065C47.047 25.2011 47.0586 24.8564 46.8532 24.6366ZM16.2125 36.854C15.8655 37.4163 15.1257 37.5915 14.5634 37.2447C14.001 36.8977 13.8259 36.1579 14.1728 35.5956L17.2238 30.6509C17.5643 30.099 18.295 29.9185 18.8529 30.2481C19.4302 30.5894 19.5895 31.3809 19.2429 31.9428L16.2125 36.854ZM19.1792 38.6846C18.8323 39.2469 18.0925 39.4221 17.5302 39.0752C16.9747 38.7324 16.7962 37.9825 17.1396 37.4261L19.5803 33.4704C19.9208 32.9185 20.6515 32.738 21.2094 33.0676C21.7868 33.4089 21.9461 34.2004 21.5994 34.7623L19.1792 38.6846ZM22.1463 40.5152C21.9781 40.7876 21.7139 40.9783 21.4025 41.0521C21.0909 41.1259 20.7694 41.0738 20.497 40.9058C19.9416 40.563 19.7632 39.813 20.1065 39.2567L21.9371 36.2899C22.2776 35.738 23.0083 35.5575 23.5662 35.8871C24.1435 36.2284 24.3028 37.0199 23.9562 37.5818L22.1463 40.5152ZM26.3129 40.4014L25.1131 42.3458C24.7702 42.9014 24.0204 43.0797 23.4639 42.7364C22.9084 42.3936 22.7301 41.6436 23.0733 41.0873L24.2937 39.1094C24.6342 38.5577 25.365 38.3769 25.9228 38.7068C26.5001 39.048 26.6595 39.8395 26.3129 40.4014ZM36.2358 30.7069L33.5357 29.0478C33.2853 28.8939 32.9403 28.9764 32.7865 29.2268C32.6326 29.4771 32.715 29.8222 32.9654 29.976L36.9882 32.4478C37.5512 32.7938 37.7278 33.5332 37.3819 34.0962C37.036 34.6591 36.2965 34.8358 35.7335 34.4899L31.419 31.8387C31.1627 31.6811 30.8272 31.7614 30.6698 32.0176C30.5123 32.2739 30.5924 32.6094 30.8487 32.7668L34.1732 34.8096C34.7294 35.1514 34.9091 35.901 34.5668 36.458C34.2251 37.0142 33.4755 37.1938 32.9185 36.8516L29.9057 35.0004C29.6493 34.8429 29.3139 34.923 29.1565 35.1793C28.999 35.4356 29.0791 35.7711 29.3354 35.9285L31.3581 37.1714C31.9142 37.5132 32.094 38.2627 31.7518 38.8198C31.41 39.3759 30.6604 39.5557 30.1034 39.2134C30.1034 39.2134 28.3245 38.1215 28.3079 38.1135C28.0592 37.9934 27.7551 38.0788 27.6075 38.3191C27.4501 38.5753 27.5302 38.9108 27.7864 39.0683L28.5431 39.5332C29.106 39.8791 29.2825 40.6185 28.9366 41.1815C28.5949 41.7377 27.8453 41.9174 27.2883 41.5752L26.9841 41.3883L27.2403 40.9731C27.5677 40.4424 27.6693 39.7889 27.519 39.18C27.3707 38.5792 27.0008 38.078 26.4776 37.7687C26.0693 37.5274 25.6126 37.4297 25.1679 37.4597C25.2514 37.101 25.2518 36.7229 25.1624 36.3605C25.0141 35.7596 24.6442 35.2584 24.1209 34.9491C23.7127 34.7078 23.256 34.6101 22.8113 34.64C23.0359 33.6751 22.6224 32.6369 21.7643 32.1295C21.356 31.8883 20.8993 31.7906 20.4546 31.8205C20.6792 30.8555 20.2658 29.8173 19.4077 29.31C18.3424 28.6803 16.9471 29.0252 16.2971 30.0784L14.0525 33.7163L11.7608 32.4326L15.1548 23.7589L17.0028 24.085C16.4772 24.7378 16.3295 25.657 16.6998 26.4704C17.0831 27.3119 17.9157 27.8098 18.7853 27.8097C19.102 27.8097 19.4236 27.7437 19.7301 27.6041L22.9201 26.1511C23.1903 26.0281 23.3131 25.6998 23.19 25.4297C23.067 25.1596 22.7387 25.0366 22.4686 25.1597L19.2785 26.6126C18.6773 26.8865 17.9651 26.6201 17.6912 26.0188C17.4174 25.4174 17.6837 24.7054 18.2851 24.4315L23.3897 22.1066L29.462 22.6295C29.4776 22.6309 29.4932 22.6315 29.5087 22.6315C29.6409 22.6315 29.7692 22.5834 29.8692 22.4952L30.3861 22.0388L37.6615 29.2171L36.2358 30.7069Z" fill="black"/>
<path d="M30.2611 9.24407C30.2611 14.1545 26.2804 18.1351 21.37 18.1351C16.4597 18.1351 12.479 14.1545 12.479 9.24407C12.479 4.33368 16.4597 0.353027 21.37 0.353027C26.2804 0.353027 30.2611 4.33368 30.2611 9.24407Z" fill="url(#paint0_linear)"/>
<path d="M24.5008 7.19355C24.7149 6.98681 25.056 6.99275 25.2628 7.20682C25.4695 7.42088 25.4636 7.76201 25.2495 7.96875L21.3735 11.7121C21.1594 11.9188 20.8183 11.9129 20.6115 11.6988C20.4048 11.4847 20.4107 11.1436 20.6248 10.9369L24.5008 7.19355Z" fill="white"/>
<path d="M18.7971 8.65442C18.5831 8.44768 18.242 8.45363 18.0352 8.66769C17.8285 8.88176 17.8344 9.22289 18.0485 9.42963L20.5032 11.8003C20.7173 12.0071 21.0584 12.0011 21.2652 11.7871C21.4719 11.573 21.4659 11.2319 21.2519 11.0251L18.7971 8.65442Z" fill="white"/>
<defs>
<linearGradient id="paint0_linear" x1="21.37" y1="0.353027" x2="21.37" y2="18.1351" gradientUnits="userSpaceOnUse">
<stop stop-color="#FE9620"/>
<stop offset="1" stop-color="#E94B30"/>
</linearGradient>
</defs>
</svg>
