<svg xmlns="http://www.w3.org/2000/svg" xmlns:xlink="http://www.w3.org/1999/xlink" width="343" height="32" viewBox="0 0 343 32"><svg width="23" height="32" viewBox="0 0 23 32"><path fill="#616161" d="M16.368 0H0v32h23.343V9.492L15.05 3.766z"/><path fill="#212121" d="M18.007 0L16.94 3.05l6.404 4.423z"/><path fill="#FFF" d="M4.802 15.163h2.87v.577H5.49v1.77h2.015v.57H5.49v2.41h-.688V15.16zM9.338 15.163v5.327H8.65v-5.327h.688zM10.54 15.163h.687v4.75h2.276v.577H10.54v-5.327zM17.027 17.993h-2.07v1.92h2.307v.578H14.27v-5.326h2.876v.577h-2.19v1.684h2.072v.57z"/></svg><svg width="23" height="32" viewBox="0 0 23 32" x="32"><path fill="#3D82C4" d="M16.368 0H0v32h23.343V9.492L15.05 3.766z"/><path fill="#2B66B1" d="M18.007 0L16.94 3.05l6.404 4.423z"/><path fill="#FFF" d="M4.894 15.235a9.88 9.88 0 0 1 1.462-.11c.988 0 1.69.228 2.158.663.474.435.75 1.05.75 1.913 0 .87-.268 1.58-.766 2.07-.498.5-1.32.768-2.355.768-.49 0-.9-.024-1.25-.063v-5.24zm.688 4.71c.174.03.427.04.696.04 1.47 0 2.268-.823 2.268-2.26.008-1.257-.703-2.056-2.158-2.056-.356 0-.624.03-.806.07v4.205zM14.71 17.77c0 1.835-1.114 2.807-2.474 2.807-1.407 0-2.395-1.09-2.395-2.703 0-1.69 1.052-2.798 2.475-2.798 1.454 0 2.395 1.114 2.395 2.695zm-4.134.088c0 1.138.616 2.158 1.7 2.158 1.09 0 1.706-1.004 1.706-2.213 0-1.06-.553-2.165-1.7-2.165-1.137 0-1.706 1.05-1.706 2.22zM19.325 20.316c-.253.127-.76.253-1.407.253-1.5 0-2.632-.95-2.632-2.696 0-1.668 1.13-2.798 2.782-2.798.664 0 1.083.142 1.264.237l-.166.56a2.512 2.512 0 0 0-1.075-.22c-1.248 0-2.078.798-2.078 2.197 0 1.304.75 2.142 2.047 2.142.418 0 .845-.087 1.12-.22l.143.545z"/></svg><svg width="23" height="32" viewBox="0 0 23 32" x="64"><path fill="#4DAF4E" d="M16.368 0H0v32h23.343V9.492L15.05 3.766z"/><path fill="#317E3D" d="M18.007 0L16.94 3.05l6.404 4.423z"/><path fill="#FFF" d="M8.14 20.49l-.68-1.177c-.277-.45-.45-.743-.616-1.05h-.016c-.15.307-.3.592-.577 1.058l-.64 1.17h-.79l1.63-2.694-1.566-2.632h.798l.703 1.25c.198.347.348.615.49.9H6.9c.15-.316.283-.56.48-.9l.728-1.25h.79l-1.62 2.592 1.66 2.734H8.14zM9.736 15.163h.688v4.75H12.7v.577H9.736v-5.327zM13.37 19.652c.31.19.76.348 1.234.348.704 0 1.114-.37 1.114-.91 0-.497-.285-.78-1.004-1.058-.87-.308-1.407-.76-1.407-1.51 0-.83.688-1.446 1.723-1.446.545 0 .94.126 1.178.26l-.19.562a2.122 2.122 0 0 0-1.012-.253c-.727 0-1.004.435-1.004.798 0 .498.324.743 1.06 1.028.9.35 1.358.783 1.358 1.566 0 .822-.61 1.533-1.865 1.533-.514 0-1.075-.15-1.36-.34l.175-.578z"/></svg><svg width="23" height="32" viewBox="0 0 23 32" x="96"><path fill="#C62828" d="M16.368 0H0v32h23.343V9.492L15.05 3.766z"/><path fill="#9B1E20" d="M18.007 0L16.94 3.05l6.404 4.423z"/><path fill="#FFF" d="M4.82 15.227a8.005 8.005 0 0 1 1.32-.103c.68 0 1.177.158 1.494.443.292.253.466.64.466 1.114 0 .483-.142.862-.41 1.14-.365.386-.957.584-1.63.584a2.34 2.34 0 0 1-.552-.048v2.134H4.82v-5.263zm.688 2.568c.15.04.34.055.57.055.83 0 1.335-.403 1.335-1.138 0-.703-.498-1.043-1.257-1.043-.3 0-.53.023-.648.054v2.07zM9.024 15.235a9.88 9.88 0 0 1 1.462-.11c.988 0 1.69.228 2.158.663.474.435.75 1.05.75 1.913 0 .87-.268 1.58-.766 2.07-.498.5-1.32.768-2.355.768-.49 0-.9-.024-1.25-.063v-5.24zm.688 4.71c.174.03.427.04.696.04 1.47 0 2.268-.823 2.268-2.26.008-1.257-.703-2.056-2.158-2.056-.356 0-.624.03-.806.07v4.205zM14.287 15.163h2.87v.577h-2.182v1.77h2.016v.57h-2.015v2.41h-.688V15.16z"/></svg><svg width="23" height="32" viewBox="0 0 23 32" x="128"><path fill="#607D8B" d="M16.368 0H0v32h23.343V9.492L15.05 3.766z"/><path fill="#263238" d="M18.007 0L16.94 3.05l6.404 4.423z"/><path fill="#FFF" d="M6.433 15.748h-1.62v-.585h3.944v.585H7.13v4.742h-.697v-4.742zM12.44 20.49l-.68-1.177c-.278-.45-.45-.743-.617-1.05h-.016c-.15.307-.3.592-.577 1.058l-.64 1.17h-.79l1.628-2.694-1.565-2.632h.798l.704 1.25c.198.347.348.615.49.9h.024c.15-.316.284-.56.482-.9l.727-1.25h.79l-1.62 2.592 1.66 2.734h-.798zM15.11 15.748h-1.62v-.585h3.943v.585h-1.628v4.742h-.695v-4.742z"/></svg><svg width="23" height="32" viewBox="0 0 23 32" x="160"><path fill="#F9BF2C" d="M16.368 0H0v32h23.343V9.492L15.05 3.766z"/><path fill="#F57F20" d="M18.007 0L16.94 3.05l6.404 4.423z"/><path fill="#FFF" d="M4.893 20.087l2.956-4.323v-.024H5.145v-.577h3.596v.42l-2.94 4.306v.023h2.98v.577H4.89v-.403zM10.314 15.163v5.327h-.688v-5.327h.688zM11.515 15.226a8.005 8.005 0 0 1 1.32-.103c.68 0 1.177.158 1.494.443.29.253.465.64.465 1.114 0 .482-.142.86-.41 1.138-.365.387-.957.585-1.63.585-.204 0-.394-.008-.552-.047v2.134h-.688v-5.263zm.688 2.57c.15.038.34.054.57.054.83 0 1.335-.403 1.335-1.138 0-.703-.498-1.043-1.257-1.043-.3 0-.528.023-.647.054v2.07z"/></svg><svg width="23" height="32" viewBox="0 0 23 32" x="192"><path fill="#9B51A0" d="M16.368 0H0v32h23.343V9.492L15.05 3.766z"/><path fill="#692C90" d="M18.007 0L16.94 3.05l6.404 4.423z"/><path fill="#FFF" d="M4.796 15.235c.348-.07.846-.11 1.32-.11.735 0 1.21.133 1.54.434.27.236.42.6.42 1.01 0 .704-.443 1.17-1.004 1.36v.024c.41.142.656.522.782 1.075.174.742.3 1.255.41 1.46h-.71c-.087-.15-.205-.607-.356-1.272-.158-.735-.443-1.012-1.067-1.035h-.647v2.308h-.688v-5.255zm.687 2.426h.703c.735 0 1.2-.402 1.2-1.01 0-.69-.497-.99-1.224-.997-.332 0-.57.032-.68.063v1.944zM9.948 18.815l-.553 1.676h-.71l1.81-5.326h.83l1.817 5.327h-.735l-.57-1.675H9.95zm1.747-.538l-.522-1.533c-.12-.348-.198-.664-.277-.972h-.016c-.08.316-.166.64-.27.964l-.52 1.54h1.603zM13.923 15.235c.348-.07.846-.11 1.32-.11.735 0 1.21.133 1.54.434.27.236.42.6.42 1.01 0 .704-.443 1.17-1.004 1.36v.024c.41.142.655.522.782 1.075.174.742.3 1.255.41 1.46h-.71c-.087-.15-.205-.607-.356-1.272-.158-.735-.443-1.012-1.067-1.035h-.65v2.308h-.687v-5.255zm.687 2.426h.704c.735 0 1.2-.402 1.2-1.01 0-.69-.497-.99-1.224-.997-.332 0-.57.032-.68.063v1.944z"/></svg><svg width="23" height="32" viewBox="0 0 23 32" x="224"><path fill="#04897B" d="M16.368 0H0v32h23.343V9.492L15.05 3.766z"/><path fill="#006756" d="M18.007 0L16.94 3.05l6.404 4.423z"/><path fill="#FFF" d="M6.512 15.163H7.2v3.564c0 1.415-.696 1.85-1.612 1.85a2.23 2.23 0 0 1-.735-.127l.103-.56c.142.054.348.102.577.102.616 0 .98-.277.98-1.32v-3.51zM8.345 15.226a8.005 8.005 0 0 1 1.32-.103c.68 0 1.178.158 1.494.443.29.253.465.64.465 1.114 0 .482-.142.86-.41 1.138-.365.387-.957.585-1.63.585-.204 0-.394-.008-.552-.047v2.134h-.688v-5.263zm.687 2.57c.15.038.34.054.57.054.83 0 1.335-.403 1.335-1.138 0-.703-.498-1.043-1.257-1.043-.3 0-.53.023-.648.054v2.07zM16.603 20.253a4.95 4.95 0 0 1-1.636.293c-.806 0-1.47-.205-1.992-.703-.458-.443-.743-1.154-.743-1.984.008-1.59 1.098-2.75 2.885-2.75.616 0 1.1.133 1.328.244l-.166.56c-.285-.125-.64-.228-1.178-.228-1.296 0-2.142.806-2.142 2.142 0 1.352.814 2.15 2.055 2.15.45 0 .76-.063.917-.142v-1.59H14.85v-.552h1.754v2.56z"/></svg><svg width="23" height="32" viewBox="0 0 23 32" x="256"><path fill="#AFB436" d="M16.368 0H0v32h23.343V9.492L15.05 3.766z"/><path fill="#969436" d="M18.007 0L16.94 3.05l6.404 4.423z"/><path fill="#FFF" d="M4.862 15.226a8.005 8.005 0 0 1 1.32-.103c.68 0 1.177.158 1.494.443.292.253.466.64.466 1.114 0 .482-.142.86-.41 1.138-.365.387-.957.585-1.63.585-.204 0-.394-.008-.552-.047v2.134h-.688v-5.263zm.687 2.57c.15.038.34.054.568.054.83 0 1.336-.403 1.336-1.138 0-.703-.498-1.043-1.257-1.043-.3 0-.53.023-.648.054v2.07zM9.066 20.49v-5.327h.75l1.708 2.695c.395.625.703 1.185.956 1.73l.016-.007c-.063-.71-.08-1.358-.08-2.188v-2.23h.65v5.328h-.696l-1.69-2.703a16.88 16.88 0 0 1-.997-1.778l-.024.007c.04.672.054 1.312.054 2.197v2.276h-.648zM18.32 20.253a4.95 4.95 0 0 1-1.637.293c-.806 0-1.47-.205-1.992-.703-.457-.443-.742-1.154-.742-1.984.008-1.59 1.098-2.75 2.885-2.75.616 0 1.098.133 1.328.244l-.165.56c-.285-.125-.64-.228-1.178-.228-1.296 0-2.142.806-2.142 2.142 0 1.352.814 2.15 2.055 2.15.45 0 .76-.063.917-.142v-1.59h-1.083v-.552h1.755v2.56z"/></svg><svg width="23" height="32" viewBox="0 0 23 32" x="288"><path fill="#2E3192" d="M16.368 0H0v32h23.343V9.492L15.05 3.766z"/><path fill="#2C2C6F" d="M18.007 0L16.94 3.05l6.404 4.423z"/><path fill="#FFF" d="M9.284 20.356c-.308.11-.917.292-1.636.292-.806 0-1.47-.205-1.992-.703-.458-.443-.743-1.154-.743-1.984.008-1.588 1.098-2.75 2.885-2.75.616 0 1.098.136 1.328.246l-.166.56c-.284-.125-.64-.228-1.178-.228-1.296 0-2.142.806-2.142 2.142 0 1.35.814 2.15 2.055 2.15.45 0 .76-.063.917-.142v-1.59H7.53v-.552h1.754v2.56zM11.022 15.266v5.327h-.688v-5.327h.688zM12.223 15.266h2.87v.577H12.91v1.77h2.016v.57H12.91v2.41h-.687v-5.328z"/></svg></svg>