<?xml version="1.0" encoding="utf-8"?>
<!-- Generator: Adobe Illustrator 22.0.1, SVG Export Plug-In . SVG Version: 6.00 Build 0)  -->
<svg version="1.1" id="postroyka.bel-2019" xmlns="http://www.w3.org/2000/svg" xmlns:xlink="http://www.w3.org/1999/xlink" x="0px"
	 y="0px" viewBox="0 0 525.3 82" style="enable-background:new 0 0 525.3 82;" xml:space="preserve">
<style type="text/css">
	.st0{fill:url(#bg_1_);}
	.st1{fill:#FEFEFE;}
</style>
<linearGradient id="bg_1_" gradientUnits="userSpaceOnUse" x1="193.55" y1="0.9301" x2="193.55" y2="82.9291" gradientTransform="matrix(1 0 0 -1 0 82.9291)">
	<stop  offset="0" style="stop-color:#E44842"/>
	<stop  offset="1" style="stop-color:#F2B256"/>
</linearGradient>
<path id="bg" class="st0" d="M10,0h367.2c5.5,0,10,4.4,10,9.9v62.2c0,5.5-4.5,9.9-10,9.9H10c-5.5,0-10-4.4-10-9.9V9.9
	C0,4.4,4.5,0,10,0z"/>
<path id="postroyka" class="st1" d="M356,53c2.3,0,4-0.5,5.4-1.5c1.2-0.9,2.2-2,3-3.3v-4.4l-1.2-0.3c-1.7-0.2-3.3-0.4-5-0.5
	c-2.6,0-4.5,0.4-5.8,1.4c-1.2,0.8-1.9,2.1-1.9,3.5c0,1.7,0.5,3,1.5,3.8C353,52.7,354.3,53,356,53z M342.8,25.3
	c5.7-2.2,11.7-3.3,17.7-3.3c2.7,0,5,0.3,6.7,1c1.6,0.5,3.1,1.4,4.3,2.7c1,1.1,1.8,2.6,2.3,4.2c0.4,1.7,0.6,3.5,0.6,5.5
	c0,2.5,0,4.9-0.2,7.3c-0.3,4.3-0.3,8.7,0,13c0.3,1.7,0.6,3.3,1.2,4.9h-8.2l-1.7-5.6h-0.8c-1.3,1.7-2.9,3.2-4.8,4.3
	c-2,1.2-4.4,1.8-7.4,1.8c-1.7,0-3.4-0.3-5-0.8c-4.4-1.4-7.4-5.5-7.3-10.1c0-4.3,1.4-7.5,4.3-9.7c2.8-2.2,7.1-3.3,13-3.3l4,0.3
	l2.8,0.5l0.2-2.6c0-1.8-0.4-3.2-1.4-4c-0.9-0.9-2.6-1.3-5-1.3c-4.4-0.1-8.7,0.9-12.6,2.9L342.8,25.3z M316.2,44.8h-3.5v15.8h-10
	V22.7h10v16.4l3.2-1.4l9.7-15h10.8c-3.3,4.6-6.6,9.3-9.7,14l-4.8,3.1l5,3.1c3.6,6,7.3,11.8,11.1,17.6h-11.6L316.2,44.8L316.2,44.8z
	 M270,7.1c0.4,2,1,3.4,2,4.1c1.1,0.8,2.4,1.1,3.7,1.1c1.6,0,2.9-0.4,3.8-1.1c1-0.7,1.6-2,2-4l7.5,2c-0.6,3.1-2.2,5.5-4.7,7
	c-2.7,1.7-5.8,2.5-9,2.4c-1.6,0-3.2-0.2-4.7-0.5c-1.5-0.3-2.9-0.8-4.1-1.6c-2.6-1.6-4.5-4.3-5-7.3L270,7.1L270,7.1z M282.2,43.5
	l0.4-6.4l-4.5,6.3l-15,17.1h-6V22.7h10.1v17.9l-0.4,5.2h1c1.2-1.7,2.3-3.4,3.4-5.2l15-17.8h6v37.8h-10v-17V43.5z M221,41.6
	c0,1.7,0.2,3.1,0.5,4.5c0.3,1.3,0.8,2.6,1.6,3.7c0.6,1,1.5,1.8,2.6,2.5c1.2,0.6,2.6,1,4,0.9c6,0,8.9-3.8,8.9-11.5
	c0-1.7-0.2-3.3-0.5-4.7c-0.3-1.4-0.8-2.6-1.5-3.6c-0.7-1-1.6-1.9-2.8-2.4c-1.2-0.6-2.6-1-4-1c-2.5-0.1-4.9,0.9-6.5,2.8
	C221.8,34.6,221,37.6,221,41.6L221,41.6z M210.6,41.6c0-6.2,1.7-11,5-14.6c3.3-3.6,8-5.3,14.2-5.3c3.2,0,6,0.5,8.4,1.5
	c4.6,1.9,8.1,5.7,9.5,10.5c0.8,2.4,1.2,5.1,1.2,8c0,3-0.4,5.8-1.3,8.3c-1.5,4.8-5.1,8.6-9.8,10.3c-2.3,0.9-5,1.3-8,1.3
	c-3.3,0-6.1-0.5-8.5-1.5c-4.6-1.8-8.1-5.7-9.5-10.5C211,47.1,210.6,44.6,210.6,41.6L210.6,41.6z M186.2,30.1c-2.3,0-4,0.5-5.3,1.5
	c-1.4,1.3-2.4,3-2.9,4.8v14.7c1.8,1.5,4.2,2.3,6.6,2.2c3.2,0,5.7-1,7.3-3.1c1.5-2,2.3-5.3,2.3-9.7c0-3.3-0.6-5.8-1.8-7.6
	C191.2,31,189.1,30.1,186.2,30.1L186.2,30.1z M168,22.7h7.2l1.2,4.7h0.8c1.5-1.9,3.3-3.3,5.2-4.3c2-1,4.3-1.4,7-1.4
	c5,0,8.8,1.5,11.4,4.5c2.5,3,3.8,8,3.8,14.5c0,3.2-0.4,6-1.2,8.6c-0.9,2.6-2,4.8-3.6,6.7c-1.6,1.8-3.6,3.3-5.9,4.2
	c-5.1,2.1-10.8,2-15.9-0.2v14.9h-10V22.7L168,22.7z M162.2,31.6h-11.7v29H140v-29h-11.8v-8.9h34V31.6z M126,58.2
	c-1.7,1.1-3.7,2-6,2.5c-2.2,0.6-4.6,1-7,1c-3.3,0-6-0.6-8.3-1.5c-2.2-1-4-2.4-5.4-4.1c-1.5-1.9-2.5-4-3.1-6.3c-0.6-2.4-1-5.1-1-8.1
	c0-6.3,1.6-11.2,4.7-14.7c3.1-3.6,7.6-5.3,13.5-5.3c4.1-0.3,8.3,0.6,12,2.4l-2.4,8c-2.5-1-5.3-1.5-8-1.5c-3,0-5.4,0.9-7,2.6
	c-1.6,1.8-2.4,4.6-2.4,8.5c0,1.5,0.2,3,0.6,4.3c0.4,1.3,1,2.4,1.8,3.4s1.9,1.8,3.1,2.4c1.2,0.6,2.7,0.9,4.4,0.9
	c2.8,0.1,5.6-0.6,8.1-2L126,58.2L126,58.2z M61.5,41.4c0,1.6,0.2,3,0.6,4.5c0.3,1.3,0.8,2.5,1.5,3.6c0.7,1,1.6,1.9,2.7,2.5
	c1.2,0.7,2.6,1,4,1c5.9,0,8.8-4,8.8-11.6c0-1.7-0.1-3.2-0.5-4.6c-0.3-1.5-0.8-2.7-1.5-3.7c-0.7-1-1.6-1.9-2.7-2.4
	c-1.2-0.6-2.6-0.9-4-0.9c-2.5-0.2-4.9,0.8-6.5,2.7C62.3,34.4,61.5,37.3,61.5,41.4z M51.2,41.4c0-6.2,1.6-11.1,5-14.7
	c3.3-3.5,8-5.3,14.1-5.3c3.2,0,6,0.5,8.4,1.5c4.6,1.8,8.2,5.7,9.6,10.5c0.8,2.5,1.2,5.1,1.2,8c0,3-0.5,5.8-1.3,8.3
	c-0.9,2.5-2.1,4.6-3.8,6.3c-1.7,1.8-3.7,3.1-6,4c-2.3,0.9-5,1.3-8,1.3c-3.3,0-6.2-0.5-8.6-1.5c-4.6-1.8-8.1-5.7-9.5-10.5
	C51.5,46.7,51.2,44.1,51.2,41.4z M34.6,31.4h-14v28.9h-10V22.5h34v37.8h-10V31.4z"/>
<path id="bel" d="M515.4,32.6h-8.6c-0.1,4-0.4,7.6-0.9,11.1c-0.4,3.1-1.1,6.1-2.1,9c-1,2.6-2.3,4.7-3.9,6.2
	c-1.7,1.5-3.9,2.3-6.2,2.2c-3,0-5-0.3-6.2-1l1.4-8.6l2.2,0.3c1,0,2-0.4,3-1.2c0.7-0.8,1.4-2.2,2-4.3c0.6-2,1-4.9,1.4-8.5
	c0.3-3.6,0.6-8.2,0.8-13.8h27v36.7h-9.9V32.6L515.4,32.6z M484,57.3c-1.9,1.4-4.1,2.5-6.4,3.2c-2.9,0.8-5.8,1.3-8.8,1.2
	c-6.3,0-11-1.7-13.9-5.1c-2.9-3.5-4.4-8.2-4.4-14.2c0-6.4,1.7-11.3,5-14.5c3.3-3.3,8-5,14-5c2,0,3.9,0.3,5.8,0.8
	c1.8,0.4,3.6,1.3,5.1,2.4c1.5,1.1,2.7,2.7,3.6,4.6c1,2,1.4,4.3,1.4,7.2c0,2.3-0.3,4.6-0.8,6.8h-24.5c0.3,3.2,1.2,5.6,2.8,7
	c1.6,1.6,4.2,2.4,7.9,2.4c3.5,0,7-1,9.9-3L484,57.3z M469.5,30.6c-3,0-5,0.8-6.5,2.4c-1.4,1.7-2.3,3.8-2.4,6h15.8
	c0.2-2.6-0.3-4.7-1.4-6.1C473.9,31.4,472,30.6,469.5,30.6z M416.1,31.7c1.6-2,3.5-3.6,5.5-4.6c2.1-1,4.6-1.4,7.6-1.4
	c4.2-0.2,8.3,1.2,11.4,3.9c2.8,2.6,4.2,6.7,4.2,12.3c0,6.5-1.6,11.5-4.8,14.8c-3.2,3.4-7.8,5-13.6,5c-6.2,0-10.9-1.8-14-5.5
	c-3.3-3.8-4.9-9.6-4.9-17.5c0-4.2,0.3-7.7,0.9-10.6c0.5-3,1.2-5.4,2.2-7.3c1.6-3.4,4.5-5.9,8-7c1.6-0.7,3.4-1,5.3-1.3l6-0.6
	c2.7-0.2,5-0.5,7-0.8c1.9-0.3,3.3-0.8,4.4-1.5l0.3,8.4c-1,0.8-2.5,1.3-4.5,1.6c-1.9,0.3-4.5,0.5-8,0.7l-5.4,0.5
	c-1.6,0.2-3,0.7-4.1,1.4c-1.2,0.8-2.2,1.9-2.8,3.3c-0.7,1.5-1.2,3.6-1.6,6.3h1L416.1,31.7z M417.6,43.1c0,1.5,0.2,3,0.5,4.2
	c0.4,1.2,1,2.3,1.6,3.3c0.7,0.9,1.6,1.6,2.7,2.2c1,0.5,2.3,0.8,3.8,0.8c3,0,5.2-1,6.5-2.8c1.4-2.3,2.1-4.9,2-7.6c0-3-0.6-5.4-1.9-7
	c-1.2-1.6-3.3-2.4-6.2-2.4c-3,0-5.3,0.9-6.8,2.5C418.2,38.2,417.5,40.6,417.6,43.1z M392,56.3c0-1.7,0.5-3,1.6-4
	c1.2-1,2.6-1.5,4.4-1.5c1.9,0,3.3,0.5,4.4,1.5s1.7,2.3,1.7,4c0,1.6-0.6,3-1.7,4c-1.2,1-2.8,1.5-4.4,1.4c-1.8,0-3.2-0.5-4.4-1.5
	C392.5,59.1,391.9,57.7,392,56.3L392,56.3z"/>
</svg>
