<svg width="147" height="22" viewBox="0 0 147 22" fill="none" xmlns="http://www.w3.org/2000/svg">
<path d="M2.7984 0H105.556C107.095 0 108.354 1.18049 108.354 2.6561V19.3439C108.354 20.8195 107.095 22 105.556 22H2.7984C1.25928 22 0 20.8195 0 19.3439V2.6561C0 1.18049 1.25928 0 2.7984 0Z" fill="url(#paint0_linear)"/>
<path d="M99.6231 14.2195C100.267 14.2195 100.742 14.0854 101.134 13.8171C101.47 13.5756 101.75 13.2805 101.974 12.9317V11.7512L101.638 11.6707C101.162 11.6171 100.714 11.5634 100.239 11.5366C99.5111 11.5366 98.9794 11.6439 98.6156 11.9122C98.2798 12.1268 98.084 12.4756 98.084 12.8512C98.084 13.3073 98.2239 13.6561 98.5037 13.8707C98.7836 14.139 99.1473 14.2195 99.6231 14.2195ZM95.9292 6.7878C97.5243 6.19756 99.2033 5.90244 100.882 5.90244C101.638 5.90244 102.282 5.98293 102.757 6.17073C103.205 6.30488 103.625 6.54634 103.961 6.89512C104.24 7.19024 104.464 7.59268 104.604 8.02195C104.716 8.47805 104.772 8.96098 104.772 9.49756C104.772 10.1683 104.772 10.8122 104.716 11.4561C104.632 12.6098 104.632 13.7902 104.716 14.9439C104.8 15.4 104.884 15.8293 105.052 16.2585H102.757L102.282 14.7561H102.058C101.694 15.2122 101.246 15.6146 100.714 15.9098C100.155 16.2317 99.4832 16.3927 98.6436 16.3927C98.1679 16.3927 97.6922 16.3122 97.2444 16.1781C96.0131 15.8024 95.1736 14.7024 95.2016 13.4683C95.2016 12.3146 95.5934 11.4561 96.4049 10.8659C97.1885 10.2756 98.3918 9.98049 100.043 9.98049L101.162 10.061L101.946 10.1951L102.002 9.49756C102.002 9.01463 101.89 8.63902 101.61 8.42439C101.358 8.18293 100.882 8.07561 100.211 8.07561C98.9794 8.04878 97.7761 8.31707 96.6848 8.85366L95.9292 6.7878ZM88.4854 12.0195H87.506V16.2585H84.7076V6.09024H87.506V10.4902L88.4015 10.1146L91.1159 6.09024H94.1382C93.2147 7.32439 92.2913 8.58537 91.4238 9.84634L90.0805 10.678L91.4797 11.5098C92.4871 13.1195 93.5226 14.6756 94.586 16.2317H91.3398L88.4854 12.0195ZM75.5568 1.90488C75.6688 2.44146 75.8367 2.81707 76.1165 3.00488C76.4243 3.21951 76.7881 3.3 77.1519 3.3C77.5997 3.3 77.9634 3.19268 78.2153 3.00488C78.4951 2.81707 78.663 2.46829 78.775 1.93171L80.8738 2.46829C80.7059 3.3 80.2581 3.9439 79.5585 4.34634C78.803 4.80244 77.9355 5.01707 77.04 4.99024C76.5922 4.99024 76.1445 4.93658 75.7247 4.8561C75.305 4.77561 74.9132 4.64146 74.5774 4.42683C73.8498 3.99756 73.3181 3.27317 73.1782 2.46829L75.5568 1.90488ZM78.9709 11.6707L79.0828 9.95366L77.8235 11.6439L73.6259 16.2317H71.9469V6.09024H74.7733V10.8927L74.6613 12.2878H74.9412C75.277 11.8317 75.5848 11.3756 75.8926 10.8927L80.0902 6.11707H81.7693V16.2585H78.9709V11.6976V11.6707ZM61.8447 11.161C61.8447 11.6171 61.9006 11.9927 61.9846 12.3683C62.0685 12.7171 62.2085 13.0659 62.4323 13.361C62.6002 13.6293 62.8521 13.8439 63.1599 14.0317C63.4957 14.1927 63.8875 14.3 64.2793 14.2732C65.9583 14.2732 66.7698 13.2537 66.7698 11.1878C66.7698 10.7317 66.7139 10.3024 66.6299 9.92683C66.546 9.55122 66.4061 9.22927 66.2102 8.96098C66.0143 8.69268 65.7624 8.45122 65.4266 8.31707C65.0908 8.1561 64.699 8.04878 64.3073 8.04878C63.6077 8.02195 62.936 8.29024 62.4883 8.8C62.0685 9.28293 61.8447 10.0878 61.8447 11.161ZM58.9343 11.161C58.9343 9.49756 59.4101 8.20976 60.3335 7.2439C61.257 6.27805 62.5722 5.82195 64.3073 5.82195C65.2027 5.82195 65.9863 5.9561 66.6579 6.22439C67.9452 6.73415 68.9246 7.75366 69.3164 9.04146C69.5403 9.68537 69.6522 10.4098 69.6522 11.1878C69.6522 11.9927 69.5403 12.7439 69.2884 13.4146C68.8686 14.7024 67.8612 15.722 66.546 16.1781C65.9023 16.4195 65.1468 16.5268 64.3073 16.5268C63.3838 16.5268 62.6002 16.3927 61.9286 16.1244C60.6413 15.6415 59.6619 14.5951 59.2701 13.3073C59.0463 12.6366 58.9343 11.9659 58.9343 11.161ZM52.1062 8.07561C51.4626 8.07561 50.9869 8.20976 50.6231 8.47805C50.2313 8.82683 49.9515 9.28293 49.8115 9.76585V13.7098C50.3153 14.1122 50.9869 14.3268 51.6585 14.3C52.554 14.3 53.2536 14.0317 53.7013 13.4683C54.1211 12.9317 54.3449 12.0463 54.3449 10.8659C54.3449 9.98049 54.177 9.30976 53.8412 8.82683C53.5054 8.31707 52.9178 8.07561 52.1062 8.07561ZM47.0131 6.09024H49.028L49.3638 7.35122H49.5877C50.0074 6.84146 50.5111 6.46585 51.0428 6.19756C51.6025 5.92927 52.2461 5.82195 53.0017 5.82195C54.4009 5.82195 55.4643 6.22439 56.1919 7.02927C56.8915 7.83415 57.2553 9.17561 57.2553 10.9195C57.2553 11.778 57.1433 12.5293 56.9195 13.2268C56.6676 13.9244 56.3598 14.5146 55.9121 15.0244C55.4643 15.5073 54.9046 15.9098 54.261 16.1512C52.8338 16.7146 51.2387 16.6878 49.8115 16.0976V20.0951H47.0131V6.09024ZM45.3901 8.47805H42.1159V16.2585H39.1776V8.47805H35.8755V6.09024H45.3901V8.47805ZM35.2599 15.6146C34.7841 15.9098 34.2244 16.1512 33.5808 16.2854C32.9652 16.4463 32.2936 16.5537 31.6219 16.5537C30.6985 16.5537 29.9429 16.3927 29.2993 16.1512C28.6836 15.8829 28.1799 15.5073 27.7881 15.0512C27.3684 14.5415 27.0885 13.978 26.9206 13.361C26.7527 12.7171 26.6408 11.9927 26.6408 11.1878C26.6408 9.49756 27.0885 8.18293 27.956 7.2439C28.8235 6.27805 30.0828 5.82195 31.7339 5.82195C32.8812 5.74146 34.0565 5.98293 35.0919 6.46585L34.4203 8.61219C33.7207 8.3439 32.9372 8.20976 32.1816 8.20976C31.3421 8.20976 30.6705 8.45122 30.2227 8.90732C29.775 9.39024 29.5511 10.1415 29.5511 11.1878C29.5511 11.5902 29.6071 11.9927 29.719 12.3415C29.831 12.6902 29.9989 12.9854 30.2227 13.2537C30.4466 13.522 30.7544 13.7366 31.0902 13.8976C31.426 14.0585 31.8458 14.139 32.3215 14.139C33.1051 14.1659 33.8886 13.9781 34.5882 13.6024L35.2599 15.6146ZM17.2102 11.1073C17.2102 11.5366 17.2661 11.9122 17.3781 12.3146C17.462 12.6634 17.6019 12.9854 17.7978 13.2805C17.9937 13.5488 18.2456 13.7902 18.5534 13.9512C18.8892 14.139 19.281 14.2195 19.6728 14.2195C21.3238 14.2195 22.1354 13.1463 22.1354 11.1073C22.1354 10.6512 22.1074 10.2488 21.9954 9.87317C21.9115 9.47073 21.7716 9.14878 21.5757 8.88049C21.3798 8.61219 21.1279 8.37073 20.8201 8.23659C20.4843 8.07561 20.0925 7.99512 19.7007 7.99512C19.0011 7.94146 18.3295 8.20976 17.8818 8.71951C17.434 9.22927 17.2102 10.0073 17.2102 11.1073ZM14.3278 11.1073C14.3278 9.4439 14.7756 8.12927 15.727 7.16341C16.6505 6.22439 17.9657 5.74146 19.6728 5.74146C20.5683 5.74146 21.3518 5.87561 22.0234 6.1439C23.3107 6.62683 24.3181 7.67317 24.7099 8.96098C24.9338 9.63171 25.0457 10.3293 25.0457 11.1073C25.0457 11.9122 24.9058 12.6634 24.6819 13.3341C24.43 14.0049 24.0942 14.5683 23.6185 15.0244C23.1428 15.5073 22.5831 15.8561 21.9395 16.0976C21.2958 16.339 20.5403 16.4463 19.7007 16.4463C18.7773 16.4463 17.9657 16.3122 17.2941 16.0439C16.0069 15.561 15.0274 14.5146 14.6356 13.2268C14.4118 12.5293 14.3278 11.8317 14.3278 11.1073ZM9.68247 8.42439H5.76471V16.1781H2.96631V6.03658H12.4809V16.1781H9.68247V8.42439Z" fill="#FEFEFE"/>
<path d="M144.23 8.74636H141.823C141.795 9.81953 141.711 10.7854 141.571 11.7244C141.459 12.5561 141.263 13.361 140.983 14.139C140.704 14.8366 140.34 15.4 139.892 15.8025C139.416 16.2049 138.801 16.4195 138.157 16.3927C137.318 16.3927 136.758 16.3122 136.422 16.1244L136.814 13.8171L137.43 13.8976C137.709 13.8976 137.989 13.7903 138.269 13.5756C138.465 13.361 138.661 12.9854 138.829 12.422C138.997 11.8854 139.109 11.1073 139.22 10.1415C139.304 9.17562 139.388 7.94148 139.444 6.43904H147V16.2854H144.23V8.74636ZM135.443 15.3732C134.911 15.7488 134.295 16.0439 133.652 16.2317C132.84 16.4464 132.029 16.5805 131.189 16.5537C129.426 16.5537 128.111 16.0976 127.299 15.1854C126.488 14.2464 126.068 12.9854 126.068 11.3756C126.068 9.65855 126.544 8.34392 127.467 7.48538C128.391 6.60001 129.706 6.14392 131.385 6.14392C131.945 6.14392 132.476 6.2244 133.008 6.35855C133.512 6.46587 134.015 6.70733 134.435 7.00245C134.855 7.29757 135.191 7.72684 135.443 8.2366C135.722 8.77319 135.834 9.39026 135.834 10.1683C135.834 10.7854 135.75 11.4025 135.611 11.9927H128.754C128.838 12.8512 129.09 13.4951 129.538 13.8707C129.986 14.3 130.713 14.5147 131.749 14.5147C132.728 14.5147 133.708 14.2464 134.519 13.7098L135.443 15.3732ZM131.385 8.20977C130.545 8.20977 129.986 8.4244 129.566 8.85367C129.174 9.30977 128.922 9.87319 128.894 10.4634H133.316C133.372 9.76587 133.232 9.20245 132.924 8.82684C132.616 8.42441 132.085 8.20977 131.385 8.20977ZM116.442 8.50489C116.889 7.96831 117.421 7.53904 117.981 7.27075C118.568 7.00245 119.268 6.89514 120.107 6.89514C121.283 6.84148 122.43 7.21709 123.298 7.94148C124.081 8.63904 124.473 9.73904 124.473 11.2415C124.473 12.9854 124.025 14.3268 123.13 15.2122C122.234 16.1244 120.947 16.5537 119.324 16.5537C117.589 16.5537 116.274 16.0707 115.406 15.0781C114.483 14.0586 114.035 12.5025 114.035 10.3829C114.035 9.25611 114.119 8.31709 114.287 7.53904C114.427 6.73416 114.623 6.09026 114.902 5.5805C115.35 4.66831 116.162 3.99757 117.141 3.70245C117.589 3.51465 118.093 3.43416 118.624 3.35367L120.303 3.1927C121.059 3.13904 121.702 3.05855 122.262 2.97806C122.794 2.89757 123.186 2.76343 123.493 2.57562L123.577 4.82928C123.298 5.04392 122.878 5.17806 122.318 5.25855C121.786 5.33904 121.059 5.3927 120.079 5.44635L118.568 5.5805C118.121 5.63416 117.729 5.76831 117.421 5.95611C117.085 6.17075 116.805 6.46587 116.637 6.84148C116.441 7.24392 116.302 7.80733 116.19 8.53172H116.469L116.442 8.50489ZM116.861 11.5634C116.861 11.9659 116.917 12.3683 117.001 12.6903C117.113 13.0122 117.281 13.3073 117.449 13.5756C117.645 13.8171 117.897 14.0049 118.204 14.1659C118.484 14.3 118.848 14.3805 119.268 14.3805C120.107 14.3805 120.723 14.1122 121.087 13.6293C121.479 13.0122 121.675 12.3146 121.647 11.5903C121.647 10.7854 121.479 10.1415 121.115 9.71221C120.779 9.28294 120.191 9.06831 119.38 9.06831C118.54 9.06831 117.897 9.30977 117.477 9.73904C117.029 10.2488 116.833 10.8927 116.861 11.5634ZM109.697 15.1049C109.697 14.6488 109.837 14.3 110.145 14.0317C110.481 13.7634 110.873 13.6293 111.376 13.6293C111.908 13.6293 112.3 13.7634 112.608 14.0317C112.916 14.3 113.083 14.6488 113.083 15.1049C113.083 15.5342 112.916 15.9098 112.608 16.1781C112.272 16.4464 111.824 16.5805 111.376 16.5537C110.873 16.5537 110.481 16.4195 110.145 16.1512C109.837 15.8561 109.669 15.4805 109.697 15.1049Z" fill="#070707"/>
<defs>
<linearGradient id="paint0_linear" x1="54.1631" y1="21.9997" x2="54.1631" y2="0" gradientUnits="userSpaceOnUse">
<stop stop-color="#E44842"/>
<stop offset="1" stop-color="#F2B256"/>
</linearGradient>
</defs>
</svg>
