<?xml version="1.0" encoding="utf-8"?>
<!-- Generator: Adobe Illustrator 22.0.1, SVG Export Plug-In . SVG Version: 6.00 Build 0)  -->
<svg version="1.1" id="Слой_1" xmlns="http://www.w3.org/2000/svg" xmlns:xlink="http://www.w3.org/1999/xlink" x="0px" y="0px"
	 viewBox="0 0 16 16" enable-background="new 0 0 16 16" xml:space="preserve">
<path fill="#795898" d="M0,0h16v16H0V0z"/>
<g>
	<path fill="#FFFFFF" d="M5.6,10.4c1.5,1.5,3.2,2.6,5.2,3.4c1.4,0.6,2.6,0,3.1-1.5v-0.8c-0.8-1-1.8-1.7-3-2.2
		c-0.5,0-0.8,0.3-0.9,0.6c-0.5,0.7-1,0.7-1.6,0.4C7.1,9.8,6.2,8.9,5.7,7.7C5.3,7.1,5.3,6.5,6,6.1c0.3-0.3,0.7-0.5,0.6-0.9
		c0-0.6-1.6-2.7-2.2-3C4.2,2.1,4,2.1,3.7,2.2C2.2,2.7,1.6,3.8,2.2,5.2C3,7.2,4.1,9,5.6,10.4z M8.3,2.8h0.9c1,0.1,2,0.5,2.7,1.3
		c0.7,0.7,1.1,1.6,1.2,2.6v0.9c0,0.3,0.1,0.4,0.3,0.5h0.1c0.2,0,0.3-0.2,0.4-0.3V6.5c-0.1-1.2-0.6-2.3-1.5-3.1
		c-0.9-0.9-2-1.4-3.2-1.5H8.2C8,2.1,7.8,2.3,7.8,2.5C7.9,2.8,8.1,2.9,8.3,2.8z"/>
	<path fill="#FFFFFF" d="M12.1,7.7C12.2,7.7,12.2,7.7,12.1,7.7c0.3,0,0.4-0.2,0.4-0.3V6.7c-0.1-0.9-0.4-1.6-1-2.2
		c-0.6-0.6-1.4-1-2.3-1.1H8.5c-0.3,0-0.3,0.3-0.3,0.4c0,0.3,0.3,0.3,0.4,0.3h0.5c1.4,0.1,2.5,1.2,2.7,2.6v0.5
		C11.8,7.5,12,7.7,12.1,7.7z"/>
	<path fill="#FFFFFF" d="M10.8,7.5c0.3,0,0.4-0.2,0.4-0.3V6.9c-0.2-1.1-1-2-2.1-2.1H8.9C8.6,4.8,8.4,5,8.4,5.2
		c0.1,0.2,0.3,0.3,0.4,0.3H9c0.7,0.1,1.2,0.6,1.4,1.3v0.2C10.4,7.3,10.6,7.5,10.8,7.5z"/>
</g>
</svg>
